<?xml version="1.0" encoding="UTF-8" standalone="no"?>
<!-- Created with Inkscape (http://www.inkscape.org/) -->

<svg
   xmlns:dc="http://purl.org/dc/elements/1.1/"
   xmlns:cc="http://creativecommons.org/ns#"
   xmlns:rdf="http://www.w3.org/1999/02/22-rdf-syntax-ns#"
   xmlns:svg="http://www.w3.org/2000/svg"
   xmlns="http://www.w3.org/2000/svg"
   xmlns:sodipodi="http://sodipodi.sourceforge.net/DTD/sodipodi-0.dtd"
   xmlns:inkscape="http://www.inkscape.org/namespaces/inkscape"
   width="203.92665mm"
   height="146.94991mm"
   viewBox="0 0 203.92665 146.94991"
   version="1.1"
   id="svg8"
   inkscape:version="0.92.5 (2060ec1f9f, 2020-04-08)"
   sodipodi:docname="example.svg"
   inkscape:export-filename="/home/sithmel/Downloads/example.png"
   inkscape:export-xdpi="96"
   inkscape:export-ydpi="96">
  <defs
     id="defs2">
    <marker
       inkscape:isstock="true"
       style="overflow:visible"
       id="marker5473"
       refX="0"
       refY="0"
       orient="auto"
       inkscape:stockid="Arrow1Lend">
      <path
         transform="matrix(-0.8,0,0,-0.8,-10,0)"
         style="fill:#000000;fill-opacity:1;fill-rule:evenodd;stroke:#000000;stroke-width:1.00000003pt;stroke-opacity:1"
         d="M 0,0 5,-5 -12.5,0 5,5 Z"
         id="path5471"
         inkscape:connector-curvature="0" />
    </marker>
    <marker
       inkscape:isstock="true"
       style="overflow:visible"
       id="marker5409"
       refX="0"
       refY="0"
       orient="auto"
       inkscape:stockid="Arrow1Lend">
      <path
         transform="matrix(-0.8,0,0,-0.8,-10,0)"
         style="fill:#000000;fill-opacity:1;fill-rule:evenodd;stroke:#000000;stroke-width:1.00000003pt;stroke-opacity:1"
         d="M 0,0 5,-5 -12.5,0 5,5 Z"
         id="path5407"
         inkscape:connector-curvature="0" />
    </marker>
    <marker
       inkscape:isstock="true"
       style="overflow:visible"
       id="marker5351"
       refX="0"
       refY="0"
       orient="auto"
       inkscape:stockid="Arrow1Lend">
      <path
         transform="matrix(-0.8,0,0,-0.8,-10,0)"
         style="fill:#000000;fill-opacity:1;fill-rule:evenodd;stroke:#000000;stroke-width:1.00000003pt;stroke-opacity:1"
         d="M 0,0 5,-5 -12.5,0 5,5 Z"
         id="path5349"
         inkscape:connector-curvature="0" />
    </marker>
    <marker
       inkscape:isstock="true"
       style="overflow:visible"
       id="marker5299"
       refX="0"
       refY="0"
       orient="auto"
       inkscape:stockid="Arrow1Lend">
      <path
         transform="matrix(-0.8,0,0,-0.8,-10,0)"
         style="fill:#000000;fill-opacity:1;fill-rule:evenodd;stroke:#000000;stroke-width:1.00000003pt;stroke-opacity:1"
         d="M 0,0 5,-5 -12.5,0 5,5 Z"
         id="path5297"
         inkscape:connector-curvature="0" />
    </marker>
    <marker
       inkscape:isstock="true"
       style="overflow:visible"
       id="marker5247"
       refX="0"
       refY="0"
       orient="auto"
       inkscape:stockid="Arrow1Lend">
      <path
         transform="matrix(-0.8,0,0,-0.8,-10,0)"
         style="fill:#000000;fill-opacity:1;fill-rule:evenodd;stroke:#000000;stroke-width:1.00000003pt;stroke-opacity:1"
         d="M 0,0 5,-5 -12.5,0 5,5 Z"
         id="path5245"
         inkscape:connector-curvature="0" />
    </marker>
    <marker
       inkscape:stockid="Arrow1Lend"
       orient="auto"
       refY="0"
       refX="0"
       id="marker5165"
       style="overflow:visible"
       inkscape:isstock="true">
      <path
         id="path5163"
         d="M 0,0 5,-5 -12.5,0 5,5 Z"
         style="fill:#000000;fill-opacity:1;fill-rule:evenodd;stroke:#000000;stroke-width:1.00000003pt;stroke-opacity:1"
         transform="matrix(-0.8,0,0,-0.8,-10,0)"
         inkscape:connector-curvature="0" />
    </marker>
    <marker
       inkscape:stockid="Arrow1Lend"
       orient="auto"
       refY="0"
       refX="0"
       id="marker5105"
       style="overflow:visible"
       inkscape:isstock="true"
       inkscape:collect="always">
      <path
         id="path5103"
         d="M 0,0 5,-5 -12.5,0 5,5 Z"
         style="fill:#69715b;fill-opacity:1;fill-rule:evenodd;stroke:#000000;stroke-width:1.00000003pt;stroke-opacity:1"
         transform="matrix(-0.8,0,0,-0.8,-10,0)"
         inkscape:connector-curvature="0" />
    </marker>
    <marker
       inkscape:stockid="Arrow1Lstart"
       orient="auto"
       refY="0"
       refX="0"
       id="marker5045"
       style="overflow:visible"
       inkscape:isstock="true">
      <path
         id="path5043"
         d="M 0,0 5,-5 -12.5,0 5,5 Z"
         style="fill:#69715b;fill-opacity:1;fill-rule:evenodd;stroke:#000000;stroke-width:1.00000003pt;stroke-opacity:1"
         transform="matrix(0.8,0,0,0.8,10,0)"
         inkscape:connector-curvature="0" />
    </marker>
    <marker
       inkscape:stockid="Arrow1Lend"
       orient="auto"
       refY="0"
       refX="0"
       id="Arrow1Lend"
       style="overflow:visible"
       inkscape:isstock="true">
      <path
         id="path4648"
         d="M 0,0 5,-5 -12.5,0 5,5 Z"
         style="fill:#69715b;fill-opacity:1;fill-rule:evenodd;stroke:#000000;stroke-width:1.00000003pt;stroke-opacity:1"
         transform="matrix(-0.8,0,0,-0.8,-10,0)"
         inkscape:connector-curvature="0" />
    </marker>
    <marker
       inkscape:stockid="Arrow1Lstart"
       orient="auto"
       refY="0"
       refX="0"
       id="Arrow1Lstart"
       style="overflow:visible"
       inkscape:isstock="true">
      <path
         id="path4645"
         d="M 0,0 5,-5 -12.5,0 5,5 Z"
         style="fill:#69715b;fill-opacity:1;fill-rule:evenodd;stroke:#000000;stroke-width:1.00000003pt;stroke-opacity:1"
         transform="matrix(0.8,0,0,0.8,10,0)"
         inkscape:connector-curvature="0" />
    </marker>
  </defs>
  <sodipodi:namedview
     id="base"
     pagecolor="#ffffff"
     bordercolor="#666666"
     borderopacity="1.0"
     inkscape:pageopacity="0.0"
     inkscape:pageshadow="2"
     inkscape:zoom="1.4"
     inkscape:cx="403.58313"
     inkscape:cy="261.7422"
     inkscape:document-units="mm"
     inkscape:current-layer="flowRoot6233"
     showgrid="false"
     inkscape:connector-spacing="7"
     fit-margin-top="0"
     fit-margin-left="0"
     fit-margin-right="0"
     fit-margin-bottom="0"
     inkscape:window-width="1695"
     inkscape:window-height="1376"
     inkscape:window-x="72"
     inkscape:window-y="27"
     inkscape:window-maximized="0" />
  <metadata
     id="metadata5">
    <rdf:RDF>
      <cc:Work
         rdf:about="">
        <dc:format>image/svg+xml</dc:format>
        <dc:type
           rdf:resource="http://purl.org/dc/dcmitype/StillImage" />
        <dc:title />
      </cc:Work>
    </rdf:RDF>
  </metadata>
  <g
     inkscape:label="Layer 1"
     inkscape:groupmode="layer"
     id="layer1"
     transform="translate(-2.6726995,-0.59807962)">
    <rect
       style="fill:#edeeea;fill-opacity:1;stroke:none;stroke-width:0.25076932;stroke-miterlimit:4;stroke-dasharray:none;stroke-opacity:1"
       id="rect6217"
       width="87.931679"
       height="39.069984"
       x="2.6726995"
       y="0.59807962"
       ry="5.2594213" />
    <rect
       ry="5.2528734"
       y="0.59807962"
       x="96.217033"
       height="39.021351"
       width="110.38232"
       id="rect5657"
       style="fill:#edeeea;fill-opacity:1;stroke:none;stroke-width:0.28078955;stroke-miterlimit:4;stroke-dasharray:none;stroke-opacity:1" />
    <rect
       style="fill:#edeeea;fill-opacity:1;stroke:none;stroke-width:0.60882252;stroke-miterlimit:4;stroke-dasharray:none;stroke-opacity:1"
       id="rect5655"
       width="199.38307"
       height="101.56242"
       x="6.6817379"
       y="45.985554"
       ry="13.671865" />
    <circle
       id="path3713"
       cx="32.233944"
       cy="19.574232"
       r="17.639788"
       style="fill:#ffe07c;fill-opacity:1;stroke:none;stroke-width:0.26458332;stroke-opacity:1" />
    <g
       aria-label="dbConnection"
       transform="matrix(0.14371343,0,0,0.14371343,-41.214568,-59.473769)"
       style="font-style:normal;font-weight:normal;font-size:40px;line-height:1.25;font-family:sans-serif;text-align:center;letter-spacing:0px;word-spacing:0px;text-anchor:middle;fill:#000000;fill-opacity:1;stroke:none"
       id="flowRoot4524">
      <path
         d="m 384.02539,545.86914 v -11.30859 h 3.59375 v 30.39062 h -3.59375 v -2.7539 q -0.89844,1.62109 -2.40234,2.48046 -1.48438,0.83985 -3.4375,0.83985 -3.96485,0 -6.25,-3.06641 -2.26563,-3.08594 -2.26563,-8.49609 0,-5.33203 2.28516,-8.35938 2.28515,-3.04687 6.23047,-3.04687 1.97265,0 3.47656,0.85937 1.50391,0.83985 2.36328,2.46094 z m -10.56641,8.16406 q 0,4.17969 1.32813,6.3086 1.32812,2.1289 3.92578,2.1289 2.59766,0 3.94531,-2.14843 1.36719,-2.14844 1.36719,-6.28907 0,-4.16015 -1.36719,-6.28906 -1.34765,-2.14844 -3.94531,-2.14844 -2.59766,0 -3.92578,2.12891 -1.32813,2.12891 -1.32813,6.30859 z"
         style="font-style:normal;font-variant:normal;font-weight:normal;font-stretch:normal;font-family:'DejaVu Sans Mono';-inkscape-font-specification:'DejaVu Sans Mono';text-align:center;text-anchor:middle"
         id="path6412" />
      <path
         d="m 409.25977,554.0332 q 0,-4.17968 -1.32813,-6.30859 -1.32812,-2.12891 -3.92578,-2.12891 -2.61719,0 -3.96484,2.14844 -1.34766,2.12891 -1.34766,6.28906 0,4.14063 1.34766,6.28907 1.34765,2.14843 3.96484,2.14843 2.59766,0 3.92578,-2.1289 1.32813,-2.12891 1.32813,-6.3086 z m -10.56641,-8.16406 q 0.85937,-1.60156 2.36328,-2.46094 1.52344,-0.85937 3.51563,-0.85937 3.94531,0 6.21093,3.04687 2.26563,3.02735 2.26563,8.35938 0,5.41015 -2.28516,8.49609 -2.26562,3.06641 -6.23047,3.06641 -1.95312,0 -3.45703,-0.83985 -1.48437,-0.85937 -2.38281,-2.48046 v 2.7539 h -3.59375 v -30.39062 h 3.59375 z"
         style="font-style:normal;font-variant:normal;font-weight:normal;font-stretch:normal;font-family:'DejaVu Sans Mono';-inkscape-font-specification:'DejaVu Sans Mono';text-align:center;text-anchor:middle"
         id="path6414" />
      <path
         d="m 436.34961,563.91602 q -1.50391,0.80078 -3.08594,1.1914 -1.58203,0.41016 -3.35937,0.41016 -5.60547,0 -8.71094,-3.96485 -3.08594,-3.96484 -3.08594,-11.15234 0,-7.14844 3.10547,-11.13281 3.125,-4.00391 8.69141,-4.00391 1.77734,0 3.35937,0.41016 1.58203,0.39062 3.08594,1.1914 v 4.04297 q -1.44531,-1.1914 -3.10547,-1.8164 -1.66016,-0.625 -3.33984,-0.625 -3.84766,0 -5.76172,2.96875 -1.91406,2.96875 -1.91406,8.96484 0,5.97656 1.91406,8.94531 1.91406,2.96875 5.76172,2.96875 1.71875,0 3.35937,-0.625 1.66016,-0.625 3.08594,-1.8164 z"
         style="font-style:normal;font-variant:normal;font-weight:normal;font-stretch:normal;font-family:'DejaVu Sans Mono';-inkscape-font-specification:'DejaVu Sans Mono';text-align:center;text-anchor:middle"
         id="path6416" />
      <path
         d="m 451.48633,545.5957 q -2.73438,0 -4.14063,2.12891 -1.40625,2.12891 -1.40625,6.30859 0,4.16016 1.40625,6.3086 1.40625,2.1289 4.14063,2.1289 2.7539,0 4.16015,-2.1289 1.40625,-2.14844 1.40625,-6.3086 0,-4.17968 -1.40625,-6.30859 -1.40625,-2.12891 -4.16015,-2.12891 z m 0,-3.04687 q 4.55078,0 6.95312,2.94922 2.42188,2.94922 2.42188,8.53515 0,5.60547 -2.40235,8.55469 -2.40234,2.92969 -6.97265,2.92969 -4.55078,0 -6.95313,-2.92969 -2.40234,-2.94922 -2.40234,-8.55469 0,-5.58593 2.40234,-8.53515 2.40235,-2.94922 6.95313,-2.94922 z"
         style="font-style:normal;font-variant:normal;font-weight:normal;font-stretch:normal;font-family:'DejaVu Sans Mono';-inkscape-font-specification:'DejaVu Sans Mono';text-align:center;text-anchor:middle"
         id="path6418" />
      <path
         d="m 484.04492,551.39648 v 13.55469 h -3.61328 v -13.55469 q 0,-2.94921 -1.03516,-4.33593 -1.03515,-1.38672 -3.24218,-1.38672 -2.51953,0 -3.88672,1.79687 -1.34766,1.77735 -1.34766,5.11719 v 12.36328 h -3.59375 v -21.875 h 3.59375 v 3.28125 q 0.95703,-1.875 2.59766,-2.83203 1.64062,-0.97656 3.88672,-0.97656 3.33984,0 4.98047,2.20703 1.66015,2.1875 1.66015,6.64062 z"
         style="font-style:normal;font-variant:normal;font-weight:normal;font-stretch:normal;font-family:'DejaVu Sans Mono';-inkscape-font-specification:'DejaVu Sans Mono';text-align:center;text-anchor:middle"
         id="path6420" />
      <path
         d="m 508.10742,551.39648 v 13.55469 h -3.61328 v -13.55469 q 0,-2.94921 -1.03516,-4.33593 -1.03515,-1.38672 -3.24218,-1.38672 -2.51953,0 -3.88672,1.79687 -1.34766,1.77735 -1.34766,5.11719 v 12.36328 h -3.59375 v -21.875 h 3.59375 v 3.28125 q 0.95703,-1.875 2.59766,-2.83203 1.64062,-0.97656 3.88672,-0.97656 3.33984,0 4.98047,2.20703 1.66015,2.1875 1.66015,6.64062 z"
         style="font-style:normal;font-variant:normal;font-weight:normal;font-stretch:normal;font-family:'DejaVu Sans Mono';-inkscape-font-specification:'DejaVu Sans Mono';text-align:center;text-anchor:middle"
         id="path6422" />
      <path
         d="m 533.36133,553.11523 v 1.75782 h -15.56641 v 0.11718 q 0,3.57422 1.85547,5.52735 1.875,1.95312 5.27344,1.95312 1.71875,0 3.59375,-0.54687 1.875,-0.54688 4.0039,-1.66016 v 3.57422 q -2.05078,0.83984 -3.96484,1.25 -1.89453,0.42969 -3.67187,0.42969 -5.09766,0 -7.96875,-3.04688 -2.8711,-3.0664 -2.8711,-8.4375 0,-5.23437 2.8125,-8.35937 2.8125,-3.125 7.5,-3.125 4.17969,0 6.58203,2.83203 2.42188,2.83203 2.42188,7.73437 z m -3.59375,-1.05468 q -0.0781,-3.16407 -1.50391,-4.80469 -1.40625,-1.66016 -4.0625,-1.66016 -2.59765,0 -4.27734,1.71875 -1.67969,1.71875 -1.99219,4.76563 z"
         style="font-style:normal;font-variant:normal;font-weight:normal;font-stretch:normal;font-family:'DejaVu Sans Mono';-inkscape-font-specification:'DejaVu Sans Mono';text-align:center;text-anchor:middle"
         id="path6424" />
      <path
         d="m 556.42773,563.83789 q -1.44531,0.83984 -2.98828,1.25 -1.52343,0.42969 -3.125,0.42969 -5.07812,0 -7.94922,-3.04688 -2.85156,-3.04687 -2.85156,-8.4375 0,-5.39062 2.85156,-8.4375 2.8711,-3.04687 7.94922,-3.04687 1.58203,0 3.08594,0.41015 1.50391,0.41016 3.02734,1.26954 v 3.76953 q -1.42578,-1.26953 -2.87109,-1.83594 -1.42578,-0.56641 -3.24219,-0.56641 -3.3789,0 -5.19531,2.1875 -1.81641,2.1875 -1.81641,6.25 0,4.04297 1.81641,6.25 1.83594,2.1875 5.19531,2.1875 1.875,0 3.35938,-0.5664 1.48437,-0.58594 2.7539,-1.79688 z"
         style="font-style:normal;font-variant:normal;font-weight:normal;font-stretch:normal;font-family:'DejaVu Sans Mono';-inkscape-font-specification:'DejaVu Sans Mono';text-align:center;text-anchor:middle"
         id="path6426" />
      <path
         d="m 571.75977,536.86523 v 6.21094 h 8.16406 v 2.79297 h -8.16406 v 11.875 q 0,2.42188 0.91796,3.37891 0.91797,0.95703 3.20313,0.95703 h 4.04297 v 2.87109 h -4.39453 q -4.04297,0 -5.70313,-1.62109 -1.66015,-1.6211 -1.66015,-5.58594 v -11.875 h -5.83985 v -2.79297 h 5.83985 v -6.21094 z"
         style="font-style:normal;font-variant:normal;font-weight:normal;font-stretch:normal;font-family:'DejaVu Sans Mono';-inkscape-font-specification:'DejaVu Sans Mono';text-align:center;text-anchor:middle"
         id="path6428" />
      <path
         d="m 588.83008,543.07617 h 9.19922 v 19.08203 h 7.1289 v 2.79297 h -17.85156 v -2.79297 h 7.12891 v -16.28906 h -5.60547 z m 5.60547,-8.51562 h 3.59375 v 4.55078 h -3.59375 z"
         style="font-style:normal;font-variant:normal;font-weight:normal;font-stretch:normal;font-family:'DejaVu Sans Mono';-inkscape-font-specification:'DejaVu Sans Mono';text-align:center;text-anchor:middle"
         id="path6430" />
      <path
         d="m 619.92383,545.5957 q -2.73438,0 -4.14063,2.12891 -1.40625,2.12891 -1.40625,6.30859 0,4.16016 1.40625,6.3086 1.40625,2.1289 4.14063,2.1289 2.7539,0 4.16015,-2.1289 1.40625,-2.14844 1.40625,-6.3086 0,-4.17968 -1.40625,-6.30859 -1.40625,-2.12891 -4.16015,-2.12891 z m 0,-3.04687 q 4.55078,0 6.95312,2.94922 2.42188,2.94922 2.42188,8.53515 0,5.60547 -2.40235,8.55469 -2.40234,2.92969 -6.97265,2.92969 -4.55078,0 -6.95313,-2.92969 -2.40234,-2.94922 -2.40234,-8.55469 0,-5.58593 2.40234,-8.53515 2.40235,-2.94922 6.95313,-2.94922 z"
         style="font-style:normal;font-variant:normal;font-weight:normal;font-stretch:normal;font-family:'DejaVu Sans Mono';-inkscape-font-specification:'DejaVu Sans Mono';text-align:center;text-anchor:middle"
         id="path6432" />
      <path
         d="m 652.48242,551.39648 v 13.55469 h -3.61328 v -13.55469 q 0,-2.94921 -1.03516,-4.33593 -1.03515,-1.38672 -3.24218,-1.38672 -2.51953,0 -3.88672,1.79687 -1.34766,1.77735 -1.34766,5.11719 v 12.36328 h -3.59375 v -21.875 h 3.59375 v 3.28125 q 0.95703,-1.875 2.59766,-2.83203 1.64062,-0.97656 3.88672,-0.97656 3.33984,0 4.98047,2.20703 1.66015,2.1875 1.66015,6.64062 z"
         style="font-style:normal;font-variant:normal;font-weight:normal;font-stretch:normal;font-family:'DejaVu Sans Mono';-inkscape-font-specification:'DejaVu Sans Mono';text-align:center;text-anchor:middle"
         id="path6434" />
    </g>
    <circle
       id="circle4522"
       cx="105.06028"
       cy="72.290138"
       r="17.639788"
       style="fill:#bae2b5;fill-opacity:1;stroke:none;stroke-width:0.26458332;stroke-opacity:1" />
    <g
       aria-label="userData"
       transform="matrix(0.14371343,0,0,0.14371343,31.499494,-6.846282)"
       style="font-style:normal;font-weight:normal;font-size:40px;line-height:1.25;font-family:sans-serif;text-align:center;letter-spacing:0px;word-spacing:0px;text-anchor:middle;fill:#000000;fill-opacity:1;stroke:none"
       id="flowRoot4538">
      <path
         d="m 419.20117,556.66992 v -13.55469 h 3.59375 v 13.55469 q 0,2.94922 1.03516,4.33594 1.05469,1.38672 3.24219,1.38672 2.53906,0 3.88671,-1.77735 1.34766,-1.79687 1.34766,-5.13671 v -12.36329 h 3.61328 v 21.83594 h -3.61328 v -3.28125 q -0.95703,1.89453 -2.61719,2.8711 -1.64062,0.97656 -3.84765,0.97656 -3.35938,0 -5,-2.1875 -1.64063,-2.20703 -1.64063,-6.66016 z"
         style="font-style:normal;font-variant:normal;font-weight:normal;font-stretch:normal;font-family:'DejaVu Sans Mono';-inkscape-font-specification:'DejaVu Sans Mono';text-align:center;text-anchor:middle"
         id="path6324" />
      <path
         d="m 458.45898,543.83789 v 3.51563 q -1.54296,-0.89844 -3.10546,-1.34766 -1.5625,-0.44922 -3.1836,-0.44922 -2.4414,0 -3.65234,0.80078 -1.19141,0.78125 -1.19141,2.40235 0,1.46484 0.89844,2.1875 0.89844,0.72265 4.47266,1.40625 l 1.44531,0.27343 q 2.67578,0.50782 4.04297,2.03125 1.38672,1.52344 1.38672,3.96485 0,3.24218 -2.30469,5.07812 -2.30469,1.81641 -6.40625,1.81641 -1.6211,0 -3.39844,-0.35156 -1.77734,-0.33204 -3.84766,-1.01563 v -3.71094 q 2.01172,1.03516 3.84766,1.5625 1.83594,0.50782 3.47656,0.50782 2.38282,0 3.69141,-0.95704 1.30859,-0.97656 1.30859,-2.71484 0,-2.5 -4.78515,-3.45703 l -0.15625,-0.0391 -1.34766,-0.27344 q -3.10547,-0.60547 -4.53125,-2.03125 -1.42578,-1.44531 -1.42578,-3.92578 0,-3.14453 2.12891,-4.84375 2.1289,-1.71875 6.07421,-1.71875 1.75782,0 3.37891,0.33203 1.62109,0.3125 3.18359,0.95703 z"
         style="font-style:normal;font-variant:normal;font-weight:normal;font-stretch:normal;font-family:'DejaVu Sans Mono';-inkscape-font-specification:'DejaVu Sans Mono';text-align:center;text-anchor:middle"
         id="path6326" />
      <path
         d="m 485.23633,553.11523 v 1.75782 h -15.56641 v 0.11718 q 0,3.57422 1.85547,5.52735 1.875,1.95312 5.27344,1.95312 1.71875,0 3.59375,-0.54687 1.875,-0.54688 4.0039,-1.66016 v 3.57422 q -2.05078,0.83984 -3.96484,1.25 -1.89453,0.42969 -3.67187,0.42969 -5.09766,0 -7.96875,-3.04688 -2.8711,-3.0664 -2.8711,-8.4375 0,-5.23437 2.8125,-8.35937 2.8125,-3.125 7.5,-3.125 4.17969,0 6.58203,2.83203 2.42188,2.83203 2.42188,7.73437 z m -3.59375,-1.05468 q -0.0781,-3.16407 -1.50391,-4.80469 -1.40625,-1.66016 -4.0625,-1.66016 -2.59765,0 -4.27734,1.71875 -1.67969,1.71875 -1.99219,4.76563 z"
         style="font-style:normal;font-variant:normal;font-weight:normal;font-stretch:normal;font-family:'DejaVu Sans Mono';-inkscape-font-specification:'DejaVu Sans Mono';text-align:center;text-anchor:middle"
         id="path6328" />
      <path
         d="m 510.13867,547.58789 q -1.15234,-0.89844 -2.34375,-1.30859 -1.1914,-0.41016 -2.61719,-0.41016 -3.35937,0 -5.13671,2.10938 -1.77735,2.10937 -1.77735,6.09375 v 10.8789 h -3.61328 v -21.875 h 3.61328 v 4.27735 q 0.89844,-2.32422 2.75391,-3.55469 1.875,-1.25 4.43359,-1.25 1.32813,0 2.48047,0.33203 1.15234,0.33203 2.20703,1.03516 z"
         style="font-style:normal;font-variant:normal;font-weight:normal;font-stretch:normal;font-family:'DejaVu Sans Mono';-inkscape-font-specification:'DejaVu Sans Mono';text-align:center;text-anchor:middle"
         id="path6330" />
      <path
         d="m 520.1582,561.70898 q 4.98047,0 6.95313,-2.4414 1.97265,-2.46094 1.97265,-8.86719 0,-6.46484 -1.97265,-8.90625 -1.95313,-2.46094 -6.95313,-2.46094 h -1.875 v 22.67578 z m 0.0781,-25.91796 q 6.67969,0 9.84375,3.55468 3.16406,3.55469 3.16406,11.05469 0,7.46094 -3.16406,11.01563 -3.16406,3.53515 -9.84375,3.53515 h -5.91797 v -29.16015 z"
         style="font-style:normal;font-variant:normal;font-weight:normal;font-stretch:normal;font-family:'DejaVu Sans Mono';-inkscape-font-specification:'DejaVu Sans Mono';text-align:center;text-anchor:middle"
         id="path6332" />
      <path
         d="m 549.41602,553.95508 h -1.19141 q -3.14453,0 -4.74609,1.11328 -1.58204,1.09375 -1.58204,3.28125 0,1.97266 1.19141,3.06641 1.19141,1.09375 3.30078,1.09375 2.96875,0 4.66797,-2.05079 1.69922,-2.07031 1.71875,-5.70312 v -0.80078 z m 6.97265,-1.48438 v 12.48047 h -3.61328 v -3.24219 q -1.15234,1.95313 -2.91016,2.89063 -1.73828,0.91797 -4.23828,0.91797 -3.33984,0 -5.33203,-1.875 -1.99219,-1.89453 -1.99219,-5.0586 0,-3.65234 2.44141,-5.54687 2.46094,-1.89453 7.20703,-1.89453 h 4.82422 v -0.56641 q -0.0195,-2.61719 -1.32812,-3.78906 -1.3086,-1.19141 -4.17969,-1.19141 -1.83594,0 -3.71094,0.52735 -1.875,0.52734 -3.65234,1.54297 v -3.59375 q 1.99218,-0.76172 3.80859,-1.13282 1.83594,-0.39062 3.55469,-0.39062 2.71484,0 4.6289,0.80078 1.9336,0.80078 3.125,2.40234 0.74219,0.97657 1.05469,2.42188 0.3125,1.42578 0.3125,4.29687 z"
         style="font-style:normal;font-variant:normal;font-weight:normal;font-stretch:normal;font-family:'DejaVu Sans Mono';-inkscape-font-specification:'DejaVu Sans Mono';text-align:center;text-anchor:middle"
         id="path6334" />
      <path
         d="m 571.75977,536.86523 v 6.21094 h 8.16406 v 2.79297 h -8.16406 v 11.875 q 0,2.42188 0.91796,3.37891 0.91797,0.95703 3.20313,0.95703 h 4.04297 v 2.87109 h -4.39453 q -4.04297,0 -5.70313,-1.62109 -1.66015,-1.6211 -1.66015,-5.58594 v -11.875 h -5.83985 v -2.79297 h 5.83985 v -6.21094 z"
         style="font-style:normal;font-variant:normal;font-weight:normal;font-stretch:normal;font-family:'DejaVu Sans Mono';-inkscape-font-specification:'DejaVu Sans Mono';text-align:center;text-anchor:middle"
         id="path6336" />
      <path
         d="m 597.54102,553.95508 h -1.19141 q -3.14453,0 -4.74609,1.11328 -1.58204,1.09375 -1.58204,3.28125 0,1.97266 1.19141,3.06641 1.19141,1.09375 3.30078,1.09375 2.96875,0 4.66797,-2.05079 1.69922,-2.07031 1.71875,-5.70312 v -0.80078 z m 6.97265,-1.48438 v 12.48047 h -3.61328 v -3.24219 q -1.15234,1.95313 -2.91016,2.89063 -1.73828,0.91797 -4.23828,0.91797 -3.33984,0 -5.33203,-1.875 -1.99219,-1.89453 -1.99219,-5.0586 0,-3.65234 2.44141,-5.54687 2.46094,-1.89453 7.20703,-1.89453 h 4.82422 v -0.56641 q -0.0195,-2.61719 -1.32812,-3.78906 -1.3086,-1.19141 -4.17969,-1.19141 -1.83594,0 -3.71094,0.52735 -1.875,0.52734 -3.65234,1.54297 v -3.59375 q 1.99218,-0.76172 3.80859,-1.13282 1.83594,-0.39062 3.55469,-0.39062 2.71484,0 4.6289,0.80078 1.9336,0.80078 3.125,2.40234 0.74219,0.97657 1.05469,2.42188 0.3125,1.42578 0.3125,4.29687 z"
         style="font-style:normal;font-variant:normal;font-weight:normal;font-stretch:normal;font-family:'DejaVu Sans Mono';-inkscape-font-specification:'DejaVu Sans Mono';text-align:center;text-anchor:middle"
         id="path6338" />
    </g>
    <circle
       style="fill:#bae2b5;fill-opacity:1;stroke:none;stroke-width:0.26458332;stroke-opacity:1"
       r="17.639788"
       cy="72.290138"
       cx="59.608063"
       id="circle4540" />
    <g
       aria-label="resourceData"
       transform="matrix(0.14371343,0,0,0.14371343,-14.187101,-6.846282)"
       style="font-style:normal;font-weight:normal;font-size:40px;line-height:1.25;font-family:sans-serif;text-align:center;letter-spacing:0px;word-spacing:0px;text-anchor:middle;fill:#000000;fill-opacity:1;stroke:none"
       id="flowRoot4548">
      <path
         d="m 389.82617,547.58789 q -1.15234,-0.89844 -2.34375,-1.30859 -1.1914,-0.41016 -2.61719,-0.41016 -3.35937,0 -5.13671,2.10938 -1.77735,2.10937 -1.77735,6.09375 v 10.8789 h -3.61328 v -21.875 h 3.61328 v 4.27735 q 0.89844,-2.32422 2.75391,-3.55469 1.875,-1.25 4.43359,-1.25 1.32813,0 2.48047,0.33203 1.15234,0.33203 2.20703,1.03516 z"
         style="font-style:normal;font-variant:normal;font-weight:normal;font-stretch:normal;font-family:'DejaVu Sans Mono';-inkscape-font-specification:'DejaVu Sans Mono';text-align:center;text-anchor:middle"
         id="path6299" />
      <path
         d="m 413.04883,553.11523 v 1.75782 h -15.56641 v 0.11718 q 0,3.57422 1.85547,5.52735 1.875,1.95312 5.27344,1.95312 1.71875,0 3.59375,-0.54687 1.875,-0.54688 4.0039,-1.66016 v 3.57422 q -2.05078,0.83984 -3.96484,1.25 -1.89453,0.42969 -3.67187,0.42969 -5.09766,0 -7.96875,-3.04688 -2.8711,-3.0664 -2.8711,-8.4375 0,-5.23437 2.8125,-8.35937 2.8125,-3.125 7.5,-3.125 4.17969,0 6.58203,2.83203 2.42188,2.83203 2.42188,7.73437 z m -3.59375,-1.05468 q -0.0781,-3.16407 -1.50391,-4.80469 -1.40625,-1.66016 -4.0625,-1.66016 -2.59765,0 -4.27734,1.71875 -1.67969,1.71875 -1.99219,4.76563 z"
         style="font-style:normal;font-variant:normal;font-weight:normal;font-stretch:normal;font-family:'DejaVu Sans Mono';-inkscape-font-specification:'DejaVu Sans Mono';text-align:center;text-anchor:middle"
         id="path6301" />
      <path
         d="m 434.39648,543.83789 v 3.51563 q -1.54296,-0.89844 -3.10546,-1.34766 -1.5625,-0.44922 -3.1836,-0.44922 -2.4414,0 -3.65234,0.80078 -1.19141,0.78125 -1.19141,2.40235 0,1.46484 0.89844,2.1875 0.89844,0.72265 4.47266,1.40625 l 1.44531,0.27343 q 2.67578,0.50782 4.04297,2.03125 1.38672,1.52344 1.38672,3.96485 0,3.24218 -2.30469,5.07812 -2.30469,1.81641 -6.40625,1.81641 -1.6211,0 -3.39844,-0.35156 -1.77734,-0.33204 -3.84766,-1.01563 v -3.71094 q 2.01172,1.03516 3.84766,1.5625 1.83594,0.50782 3.47656,0.50782 2.38282,0 3.69141,-0.95704 1.30859,-0.97656 1.30859,-2.71484 0,-2.5 -4.78515,-3.45703 l -0.15625,-0.0391 -1.34766,-0.27344 q -3.10547,-0.60547 -4.53125,-2.03125 -1.42578,-1.44531 -1.42578,-3.92578 0,-3.14453 2.12891,-4.84375 2.1289,-1.71875 6.07421,-1.71875 1.75782,0 3.37891,0.33203 1.62109,0.3125 3.18359,0.95703 z"
         style="font-style:normal;font-variant:normal;font-weight:normal;font-stretch:normal;font-family:'DejaVu Sans Mono';-inkscape-font-specification:'DejaVu Sans Mono';text-align:center;text-anchor:middle"
         id="path6303" />
      <path
         d="m 451.48633,545.5957 q -2.73438,0 -4.14063,2.12891 -1.40625,2.12891 -1.40625,6.30859 0,4.16016 1.40625,6.3086 1.40625,2.1289 4.14063,2.1289 2.7539,0 4.16015,-2.1289 1.40625,-2.14844 1.40625,-6.3086 0,-4.17968 -1.40625,-6.30859 -1.40625,-2.12891 -4.16015,-2.12891 z m 0,-3.04687 q 4.55078,0 6.95312,2.94922 2.42188,2.94922 2.42188,8.53515 0,5.60547 -2.40235,8.55469 -2.40234,2.92969 -6.97265,2.92969 -4.55078,0 -6.95313,-2.92969 -2.40234,-2.94922 -2.40234,-8.55469 0,-5.58593 2.40234,-8.53515 2.40235,-2.94922 6.95313,-2.94922 z"
         style="font-style:normal;font-variant:normal;font-weight:normal;font-stretch:normal;font-family:'DejaVu Sans Mono';-inkscape-font-specification:'DejaVu Sans Mono';text-align:center;text-anchor:middle"
         id="path6305" />
      <path
         d="m 467.32617,556.66992 v -13.55469 h 3.59375 v 13.55469 q 0,2.94922 1.03516,4.33594 1.05469,1.38672 3.24219,1.38672 2.53906,0 3.88671,-1.77735 1.34766,-1.79687 1.34766,-5.13671 v -12.36329 h 3.61328 v 21.83594 h -3.61328 v -3.28125 q -0.95703,1.89453 -2.61719,2.8711 -1.64062,0.97656 -3.84765,0.97656 -3.35938,0 -5,-2.1875 -1.64063,-2.20703 -1.64063,-6.66016 z"
         style="font-style:normal;font-variant:normal;font-weight:normal;font-stretch:normal;font-family:'DejaVu Sans Mono';-inkscape-font-specification:'DejaVu Sans Mono';text-align:center;text-anchor:middle"
         id="path6307" />
      <path
         d="m 510.13867,547.58789 q -1.15234,-0.89844 -2.34375,-1.30859 -1.1914,-0.41016 -2.61719,-0.41016 -3.35937,0 -5.13671,2.10938 -1.77735,2.10937 -1.77735,6.09375 v 10.8789 h -3.61328 v -21.875 h 3.61328 v 4.27735 q 0.89844,-2.32422 2.75391,-3.55469 1.875,-1.25 4.43359,-1.25 1.32813,0 2.48047,0.33203 1.15234,0.33203 2.20703,1.03516 z"
         style="font-style:normal;font-variant:normal;font-weight:normal;font-stretch:normal;font-family:'DejaVu Sans Mono';-inkscape-font-specification:'DejaVu Sans Mono';text-align:center;text-anchor:middle"
         id="path6309" />
      <path
         d="m 532.36523,563.83789 q -1.44531,0.83984 -2.98828,1.25 -1.52343,0.42969 -3.125,0.42969 -5.07812,0 -7.94922,-3.04688 -2.85156,-3.04687 -2.85156,-8.4375 0,-5.39062 2.85156,-8.4375 2.8711,-3.04687 7.94922,-3.04687 1.58203,0 3.08594,0.41015 1.50391,0.41016 3.02734,1.26954 v 3.76953 q -1.42578,-1.26953 -2.87109,-1.83594 -1.42578,-0.56641 -3.24219,-0.56641 -3.3789,0 -5.19531,2.1875 -1.81641,2.1875 -1.81641,6.25 0,4.04297 1.81641,6.25 1.83594,2.1875 5.19531,2.1875 1.875,0 3.35938,-0.5664 1.48437,-0.58594 2.7539,-1.79688 z"
         style="font-style:normal;font-variant:normal;font-weight:normal;font-stretch:normal;font-family:'DejaVu Sans Mono';-inkscape-font-specification:'DejaVu Sans Mono';text-align:center;text-anchor:middle"
         id="path6311" />
      <path
         d="m 557.42383,553.11523 v 1.75782 h -15.56641 v 0.11718 q 0,3.57422 1.85547,5.52735 1.875,1.95312 5.27344,1.95312 1.71875,0 3.59375,-0.54687 1.875,-0.54688 4.0039,-1.66016 v 3.57422 q -2.05078,0.83984 -3.96484,1.25 -1.89453,0.42969 -3.67187,0.42969 -5.09766,0 -7.96875,-3.04688 -2.8711,-3.0664 -2.8711,-8.4375 0,-5.23437 2.8125,-8.35937 2.8125,-3.125 7.5,-3.125 4.17969,0 6.58203,2.83203 2.42188,2.83203 2.42188,7.73437 z m -3.59375,-1.05468 q -0.0781,-3.16407 -1.50391,-4.80469 -1.40625,-1.66016 -4.0625,-1.66016 -2.59765,0 -4.27734,1.71875 -1.67969,1.71875 -1.99219,4.76563 z"
         style="font-style:normal;font-variant:normal;font-weight:normal;font-stretch:normal;font-family:'DejaVu Sans Mono';-inkscape-font-specification:'DejaVu Sans Mono';text-align:center;text-anchor:middle"
         id="path6313" />
      <path
         d="m 568.2832,561.70898 q 4.98047,0 6.95313,-2.4414 1.97265,-2.46094 1.97265,-8.86719 0,-6.46484 -1.97265,-8.90625 -1.95313,-2.46094 -6.95313,-2.46094 h -1.875 v 22.67578 z m 0.0781,-25.91796 q 6.67969,0 9.84375,3.55468 3.16406,3.55469 3.16406,11.05469 0,7.46094 -3.16406,11.01563 -3.16406,3.53515 -9.84375,3.53515 h -5.91797 v -29.16015 z"
         style="font-style:normal;font-variant:normal;font-weight:normal;font-stretch:normal;font-family:'DejaVu Sans Mono';-inkscape-font-specification:'DejaVu Sans Mono';text-align:center;text-anchor:middle"
         id="path6315" />
      <path
         d="m 597.54102,553.95508 h -1.19141 q -3.14453,0 -4.74609,1.11328 -1.58204,1.09375 -1.58204,3.28125 0,1.97266 1.19141,3.06641 1.19141,1.09375 3.30078,1.09375 2.96875,0 4.66797,-2.05079 1.69922,-2.07031 1.71875,-5.70312 v -0.80078 z m 6.97265,-1.48438 v 12.48047 h -3.61328 v -3.24219 q -1.15234,1.95313 -2.91016,2.89063 -1.73828,0.91797 -4.23828,0.91797 -3.33984,0 -5.33203,-1.875 -1.99219,-1.89453 -1.99219,-5.0586 0,-3.65234 2.44141,-5.54687 2.46094,-1.89453 7.20703,-1.89453 h 4.82422 v -0.56641 q -0.0195,-2.61719 -1.32812,-3.78906 -1.3086,-1.19141 -4.17969,-1.19141 -1.83594,0 -3.71094,0.52735 -1.875,0.52734 -3.65234,1.54297 v -3.59375 q 1.99218,-0.76172 3.80859,-1.13282 1.83594,-0.39062 3.55469,-0.39062 2.71484,0 4.6289,0.80078 1.9336,0.80078 3.125,2.40234 0.74219,0.97657 1.05469,2.42188 0.3125,1.42578 0.3125,4.29687 z"
         style="font-style:normal;font-variant:normal;font-weight:normal;font-stretch:normal;font-family:'DejaVu Sans Mono';-inkscape-font-specification:'DejaVu Sans Mono';text-align:center;text-anchor:middle"
         id="path6317" />
      <path
         d="m 619.88477,536.86523 v 6.21094 h 8.16406 v 2.79297 h -8.16406 v 11.875 q 0,2.42188 0.91796,3.37891 0.91797,0.95703 3.20313,0.95703 h 4.04297 v 2.87109 h -4.39453 q -4.04297,0 -5.70313,-1.62109 -1.66015,-1.6211 -1.66015,-5.58594 v -11.875 h -5.83985 v -2.79297 h 5.83985 v -6.21094 z"
         style="font-style:normal;font-variant:normal;font-weight:normal;font-stretch:normal;font-family:'DejaVu Sans Mono';-inkscape-font-specification:'DejaVu Sans Mono';text-align:center;text-anchor:middle"
         id="path6319" />
      <path
         d="m 645.66602,553.95508 h -1.19141 q -3.14453,0 -4.74609,1.11328 -1.58204,1.09375 -1.58204,3.28125 0,1.97266 1.19141,3.06641 1.19141,1.09375 3.30078,1.09375 2.96875,0 4.66797,-2.05079 1.69922,-2.07031 1.71875,-5.70312 v -0.80078 z m 6.97265,-1.48438 v 12.48047 h -3.61328 v -3.24219 q -1.15234,1.95313 -2.91016,2.89063 -1.73828,0.91797 -4.23828,0.91797 -3.33984,0 -5.33203,-1.875 -1.99219,-1.89453 -1.99219,-5.0586 0,-3.65234 2.44141,-5.54687 2.46094,-1.89453 7.20703,-1.89453 h 4.82422 v -0.56641 q -0.0195,-2.61719 -1.32812,-3.78906 -1.3086,-1.19141 -4.17969,-1.19141 -1.83594,0 -3.71094,0.52735 -1.875,0.52734 -3.65234,1.54297 v -3.59375 q 1.99218,-0.76172 3.80859,-1.13282 1.83594,-0.39062 3.55469,-0.39062 2.71484,0 4.6289,0.80078 1.9336,0.80078 3.125,2.40234 0.74219,0.97657 1.05469,2.42188 0.3125,1.42578 0.3125,4.29687 z"
         style="font-style:normal;font-variant:normal;font-weight:normal;font-stretch:normal;font-family:'DejaVu Sans Mono';-inkscape-font-specification:'DejaVu Sans Mono';text-align:center;text-anchor:middle"
         id="path6321" />
    </g>
    <circle
       style="fill:#bae2b5;fill-opacity:1;stroke:none;stroke-width:0.26458332;stroke-opacity:1"
       r="17.639788"
       cy="72.290138"
       cx="155.03969"
       id="circle4550" />
    <g
       aria-label="template"
       transform="matrix(0.14371343,0,0,0.14371343,81.478904,-6.846283)"
       style="font-style:normal;font-weight:normal;font-size:40px;line-height:1.25;font-family:sans-serif;text-align:center;letter-spacing:0px;word-spacing:0px;text-anchor:middle;fill:#000000;fill-opacity:1;stroke:none"
       id="flowRoot4558">
      <path
         d="m 427.38477,536.86523 v 6.21094 h 8.16406 v 2.79297 h -8.16406 v 11.875 q 0,2.42188 0.91796,3.37891 0.91797,0.95703 3.20313,0.95703 h 4.04297 v 2.87109 h -4.39453 q -4.04297,0 -5.70313,-1.62109 -1.66015,-1.6211 -1.66015,-5.58594 v -11.875 h -5.83985 v -2.79297 h 5.83985 v -6.21094 z"
         style="font-style:normal;font-variant:normal;font-weight:normal;font-stretch:normal;font-family:'DejaVu Sans Mono';-inkscape-font-specification:'DejaVu Sans Mono';text-align:center;text-anchor:middle"
         id="path6341" />
      <path
         d="m 461.17383,553.11523 v 1.75782 h -15.56641 v 0.11718 q 0,3.57422 1.85547,5.52735 1.875,1.95312 5.27344,1.95312 1.71875,0 3.59375,-0.54687 1.875,-0.54688 4.0039,-1.66016 v 3.57422 q -2.05078,0.83984 -3.96484,1.25 -1.89453,0.42969 -3.67187,0.42969 -5.09766,0 -7.96875,-3.04688 -2.8711,-3.0664 -2.8711,-8.4375 0,-5.23437 2.8125,-8.35937 2.8125,-3.125 7.5,-3.125 4.17969,0 6.58203,2.83203 2.42188,2.83203 2.42188,7.73437 z m -3.59375,-1.05468 q -0.0781,-3.16407 -1.50391,-4.80469 -1.40625,-1.66016 -4.0625,-1.66016 -2.59765,0 -4.27734,1.71875 -1.67969,1.71875 -1.99219,4.76563 z"
         style="font-style:normal;font-variant:normal;font-weight:normal;font-stretch:normal;font-family:'DejaVu Sans Mono';-inkscape-font-specification:'DejaVu Sans Mono';text-align:center;text-anchor:middle"
         id="path6343" />
      <path
         d="m 476.7207,545.30273 q 0.66407,-1.40625 1.67969,-2.07031 1.03516,-0.68359 2.48047,-0.68359 2.63672,0 3.71094,2.05078 1.09375,2.03125 1.09375,7.67578 v 12.67578 h -3.28125 v -12.51953 q 0,-4.62891 -0.52735,-5.74219 -0.50781,-1.13281 -1.875,-1.13281 -1.5625,0 -2.14843,1.21094 -0.56641,1.1914 -0.56641,5.66406 v 12.51953 h -3.28125 v -12.51953 q 0,-4.6875 -0.56641,-5.78125 -0.54687,-1.09375 -1.99218,-1.09375 -1.42579,0 -1.99219,1.21094 -0.54688,1.1914 -0.54688,5.66406 v 12.51953 h -3.26172 v -21.875 h 3.26172 v 1.875 q 0.64453,-1.17187 1.60157,-1.77734 0.97656,-0.625 2.20703,-0.625 1.48437,0 2.46093,0.68359 0.9961,0.6836 1.54297,2.07031 z"
         style="font-style:normal;font-variant:normal;font-weight:normal;font-stretch:normal;font-family:'DejaVu Sans Mono';-inkscape-font-specification:'DejaVu Sans Mono';text-align:center;text-anchor:middle"
         id="path6345" />
      <path
         d="m 494.9043,562.19727 v 11.07421 h -3.61328 v -30.19531 h 3.61328 v 2.79297 q 0.89843,-1.62109 2.38281,-2.46094 1.50391,-0.85937 3.45703,-0.85937 3.96484,0 6.21094,3.0664 2.26562,3.06641 2.26562,8.4961 0,5.33203 -2.26562,8.3789 -2.26563,3.02735 -6.21094,3.02735 -1.99219,0 -3.49609,-0.83985 -1.48438,-0.85937 -2.34375,-2.48046 z m 10.54687,-8.16407 q 0,-4.17968 -1.32812,-6.30859 -1.3086,-2.12891 -3.90625,-2.12891 -2.61719,0 -3.96485,2.14844 -1.34765,2.12891 -1.34765,6.28906 0,4.14063 1.34765,6.28907 1.34766,2.14843 3.96485,2.14843 2.59765,0 3.90625,-2.1289 1.32812,-2.12891 1.32812,-6.3086 z"
         style="font-style:normal;font-variant:normal;font-weight:normal;font-stretch:normal;font-family:'DejaVu Sans Mono';-inkscape-font-specification:'DejaVu Sans Mono';text-align:center;text-anchor:middle"
         id="path6347" />
      <path
         d="m 524.12305,557.02148 q 0,2.42188 0.8789,3.65235 0.89844,1.23047 2.63672,1.23047 h 4.19922 v 3.04687 h -4.55078 q -3.22266,0 -5,-2.07031 -1.75781,-2.07031 -1.75781,-5.85938 V 537.1582 h -5.76172 v -2.8125 h 9.35547 z"
         style="font-style:normal;font-variant:normal;font-weight:normal;font-stretch:normal;font-family:'DejaVu Sans Mono';-inkscape-font-specification:'DejaVu Sans Mono';text-align:center;text-anchor:middle"
         id="path6349" />
      <path
         d="m 549.41602,553.95508 h -1.19141 q -3.14453,0 -4.74609,1.11328 -1.58204,1.09375 -1.58204,3.28125 0,1.97266 1.19141,3.06641 1.19141,1.09375 3.30078,1.09375 2.96875,0 4.66797,-2.05079 1.69922,-2.07031 1.71875,-5.70312 v -0.80078 z m 6.97265,-1.48438 v 12.48047 h -3.61328 v -3.24219 q -1.15234,1.95313 -2.91016,2.89063 -1.73828,0.91797 -4.23828,0.91797 -3.33984,0 -5.33203,-1.875 -1.99219,-1.89453 -1.99219,-5.0586 0,-3.65234 2.44141,-5.54687 2.46094,-1.89453 7.20703,-1.89453 h 4.82422 v -0.56641 q -0.0195,-2.61719 -1.32812,-3.78906 -1.3086,-1.19141 -4.17969,-1.19141 -1.83594,0 -3.71094,0.52735 -1.875,0.52734 -3.65234,1.54297 v -3.59375 q 1.99218,-0.76172 3.80859,-1.13282 1.83594,-0.39062 3.55469,-0.39062 2.71484,0 4.6289,0.80078 1.9336,0.80078 3.125,2.40234 0.74219,0.97657 1.05469,2.42188 0.3125,1.42578 0.3125,4.29687 z"
         style="font-style:normal;font-variant:normal;font-weight:normal;font-stretch:normal;font-family:'DejaVu Sans Mono';-inkscape-font-specification:'DejaVu Sans Mono';text-align:center;text-anchor:middle"
         id="path6351" />
      <path
         d="m 571.75977,536.86523 v 6.21094 h 8.16406 v 2.79297 h -8.16406 v 11.875 q 0,2.42188 0.91796,3.37891 0.91797,0.95703 3.20313,0.95703 h 4.04297 v 2.87109 h -4.39453 q -4.04297,0 -5.70313,-1.62109 -1.66015,-1.6211 -1.66015,-5.58594 v -11.875 h -5.83985 v -2.79297 h 5.83985 v -6.21094 z"
         style="font-style:normal;font-variant:normal;font-weight:normal;font-stretch:normal;font-family:'DejaVu Sans Mono';-inkscape-font-specification:'DejaVu Sans Mono';text-align:center;text-anchor:middle"
         id="path6353" />
      <path
         d="m 605.54883,553.11523 v 1.75782 h -15.56641 v 0.11718 q 0,3.57422 1.85547,5.52735 1.875,1.95312 5.27344,1.95312 1.71875,0 3.59375,-0.54687 1.875,-0.54688 4.0039,-1.66016 v 3.57422 q -2.05078,0.83984 -3.96484,1.25 -1.89453,0.42969 -3.67187,0.42969 -5.09766,0 -7.96875,-3.04688 -2.8711,-3.0664 -2.8711,-8.4375 0,-5.23437 2.8125,-8.35937 2.8125,-3.125 7.5,-3.125 4.17969,0 6.58203,2.83203 2.42188,2.83203 2.42188,7.73437 z m -3.59375,-1.05468 q -0.0781,-3.16407 -1.50391,-4.80469 -1.40625,-1.66016 -4.0625,-1.66016 -2.59765,0 -4.27734,1.71875 -1.67969,1.71875 -1.99219,4.76563 z"
         style="font-style:normal;font-variant:normal;font-weight:normal;font-stretch:normal;font-family:'DejaVu Sans Mono';-inkscape-font-specification:'DejaVu Sans Mono';text-align:center;text-anchor:middle"
         id="path6355" />
    </g>
    <circle
       id="circle4560"
       cx="104.43359"
       cy="121.33409"
       r="17.639788"
       style="fill:#bae2b5;fill-opacity:1;stroke:none;stroke-width:0.26458332;stroke-opacity:1" />
    <g
       aria-label="renderTemplate"
       transform="matrix(0.14371343,0,0,0.14371343,26.955911,41.744361)"
       style="font-style:normal;font-weight:normal;font-size:40px;line-height:1.25;font-family:sans-serif;text-align:center;letter-spacing:0px;word-spacing:0px;text-anchor:middle;fill:#000000;fill-opacity:1;stroke:none"
       id="flowRoot4568">
      <path
         d="m 390.87012,547.58789 q -1.15235,-0.89844 -2.34375,-1.30859 -1.19141,-0.41016 -2.61719,-0.41016 -3.35938,0 -5.13672,2.10938 -1.77734,2.10937 -1.77734,6.09375 v 10.8789 h -3.61328 v -21.875 h 3.61328 v 4.27735 q 0.89843,-2.32422 2.7539,-3.55469 1.875,-1.25 4.4336,-1.25 1.32812,0 2.48047,0.33203 1.15234,0.33203 2.20703,1.03516 z"
         style="font-style:normal;font-variant:normal;font-weight:normal;font-stretch:normal;font-family:'DejaVu Sans Mono';-inkscape-font-specification:'DejaVu Sans Mono';text-align:center;text-anchor:middle"
         id="path6358" />
      <path
         d="m 414.09277,553.11523 v 1.75782 h -15.5664 v 0.11718 q 0,3.57422 1.85547,5.52735 1.875,1.95312 5.27343,1.95312 1.71875,0 3.59375,-0.54687 1.875,-0.54688 4.00391,-1.66016 v 3.57422 q -2.05078,0.83984 -3.96484,1.25 -1.89454,0.42969 -3.67188,0.42969 -5.09766,0 -7.96875,-3.04688 -2.87109,-3.0664 -2.87109,-8.4375 0,-5.23437 2.8125,-8.35937 2.8125,-3.125 7.5,-3.125 4.17968,0 6.58203,2.83203 2.42187,2.83203 2.42187,7.73437 z m -3.59375,-1.05468 q -0.0781,-3.16407 -1.5039,-4.80469 -1.40625,-1.66016 -4.0625,-1.66016 -2.59766,0 -4.27735,1.71875 -1.67968,1.71875 -1.99218,4.76563 z"
         style="font-style:normal;font-variant:normal;font-weight:normal;font-stretch:normal;font-family:'DejaVu Sans Mono';-inkscape-font-specification:'DejaVu Sans Mono';text-align:center;text-anchor:middle"
         id="path6360" />
      <path
         d="m 436.96387,551.39648 v 13.55469 h -3.61328 v -13.55469 q 0,-2.94921 -1.03516,-4.33593 -1.03516,-1.38672 -3.24219,-1.38672 -2.51953,0 -3.88672,1.79687 -1.34765,1.77735 -1.34765,5.11719 v 12.36328 h -3.59375 v -21.875 h 3.59375 v 3.28125 q 0.95703,-1.875 2.59765,-2.83203 1.64063,-0.97656 3.88672,-0.97656 3.33985,0 4.98047,2.20703 1.66016,2.1875 1.66016,6.64062 z"
         style="font-style:normal;font-variant:normal;font-weight:normal;font-stretch:normal;font-family:'DejaVu Sans Mono';-inkscape-font-specification:'DejaVu Sans Mono';text-align:center;text-anchor:middle"
         id="path6362" />
      <path
         d="m 457.25684,545.86914 v -11.30859 h 3.59375 v 30.39062 h -3.59375 v -2.7539 q -0.89844,1.62109 -2.40235,2.48046 -1.48437,0.83985 -3.4375,0.83985 -3.96484,0 -6.25,-3.06641 -2.26562,-3.08594 -2.26562,-8.49609 0,-5.33203 2.28515,-8.35938 2.28516,-3.04687 6.23047,-3.04687 1.97266,0 3.47656,0.85937 1.50391,0.83985 2.36329,2.46094 z m -10.56641,8.16406 q 0,4.17969 1.32812,6.3086 1.32813,2.1289 3.92579,2.1289 2.59765,0 3.94531,-2.14843 1.36719,-2.14844 1.36719,-6.28907 0,-4.16015 -1.36719,-6.28906 -1.34766,-2.14844 -3.94531,-2.14844 -2.59766,0 -3.92579,2.12891 -1.32812,2.12891 -1.32812,6.30859 z"
         style="font-style:normal;font-variant:normal;font-weight:normal;font-stretch:normal;font-family:'DejaVu Sans Mono';-inkscape-font-specification:'DejaVu Sans Mono';text-align:center;text-anchor:middle"
         id="path6364" />
      <path
         d="m 486.28027,553.11523 v 1.75782 h -15.5664 v 0.11718 q 0,3.57422 1.85547,5.52735 1.875,1.95312 5.27343,1.95312 1.71875,0 3.59375,-0.54687 1.875,-0.54688 4.00391,-1.66016 v 3.57422 q -2.05078,0.83984 -3.96484,1.25 -1.89454,0.42969 -3.67188,0.42969 -5.09766,0 -7.96875,-3.04688 -2.87109,-3.0664 -2.87109,-8.4375 0,-5.23437 2.8125,-8.35937 2.8125,-3.125 7.5,-3.125 4.17968,0 6.58203,2.83203 2.42187,2.83203 2.42187,7.73437 z m -3.59375,-1.05468 q -0.0781,-3.16407 -1.5039,-4.80469 -1.40625,-1.66016 -4.0625,-1.66016 -2.59766,0 -4.27735,1.71875 -1.67968,1.71875 -1.99218,4.76563 z"
         style="font-style:normal;font-variant:normal;font-weight:normal;font-stretch:normal;font-family:'DejaVu Sans Mono';-inkscape-font-specification:'DejaVu Sans Mono';text-align:center;text-anchor:middle"
         id="path6366" />
      <path
         d="m 511.18262,547.58789 q -1.15235,-0.89844 -2.34375,-1.30859 -1.19141,-0.41016 -2.61719,-0.41016 -3.35938,0 -5.13672,2.10938 -1.77734,2.10937 -1.77734,6.09375 v 10.8789 h -3.61328 v -21.875 h 3.61328 v 4.27735 q 0.89843,-2.32422 2.7539,-3.55469 1.875,-1.25 4.4336,-1.25 1.32812,0 2.48047,0.33203 1.15234,0.33203 2.20703,1.03516 z"
         style="font-style:normal;font-variant:normal;font-weight:normal;font-stretch:normal;font-family:'DejaVu Sans Mono';-inkscape-font-specification:'DejaVu Sans Mono';text-align:center;text-anchor:middle"
         id="path6368" />
      <path
         d="m 513.60449,535.79102 h 22.2461 v 3.32031 h -9.1211 v 25.83984 h -3.96484 v -25.83984 h -9.16016 z"
         style="font-style:normal;font-variant:normal;font-weight:normal;font-stretch:normal;font-family:'DejaVu Sans Mono';-inkscape-font-specification:'DejaVu Sans Mono';text-align:center;text-anchor:middle"
         id="path6370" />
      <path
         d="m 558.46777,553.11523 v 1.75782 h -15.5664 v 0.11718 q 0,3.57422 1.85547,5.52735 1.875,1.95312 5.27343,1.95312 1.71875,0 3.59375,-0.54687 1.875,-0.54688 4.00391,-1.66016 v 3.57422 q -2.05078,0.83984 -3.96484,1.25 -1.89454,0.42969 -3.67188,0.42969 -5.09766,0 -7.96875,-3.04688 -2.87109,-3.0664 -2.87109,-8.4375 0,-5.23437 2.8125,-8.35937 2.8125,-3.125 7.5,-3.125 4.17968,0 6.58203,2.83203 2.42187,2.83203 2.42187,7.73437 z m -3.59375,-1.05468 q -0.0781,-3.16407 -1.5039,-4.80469 -1.40625,-1.66016 -4.0625,-1.66016 -2.59766,0 -4.27735,1.71875 -1.67968,1.71875 -1.99218,4.76563 z"
         style="font-style:normal;font-variant:normal;font-weight:normal;font-stretch:normal;font-family:'DejaVu Sans Mono';-inkscape-font-specification:'DejaVu Sans Mono';text-align:center;text-anchor:middle"
         id="path6372" />
      <path
         d="m 574.01465,545.30273 q 0.66406,-1.40625 1.67969,-2.07031 1.03515,-0.68359 2.48046,-0.68359 2.63672,0 3.71094,2.05078 1.09375,2.03125 1.09375,7.67578 v 12.67578 h -3.28125 v -12.51953 q 0,-4.62891 -0.52734,-5.74219 -0.50781,-1.13281 -1.875,-1.13281 -1.5625,0 -2.14844,1.21094 -0.56641,1.1914 -0.56641,5.66406 v 12.51953 h -3.28125 v -12.51953 q 0,-4.6875 -0.5664,-5.78125 -0.54688,-1.09375 -1.99219,-1.09375 -1.42578,0 -1.99219,1.21094 -0.54687,1.1914 -0.54687,5.66406 v 12.51953 h -3.26172 v -21.875 h 3.26172 v 1.875 q 0.64453,-1.17187 1.60156,-1.77734 0.97656,-0.625 2.20703,-0.625 1.48438,0 2.46094,0.68359 0.99609,0.6836 1.54297,2.07031 z"
         style="font-style:normal;font-variant:normal;font-weight:normal;font-stretch:normal;font-family:'DejaVu Sans Mono';-inkscape-font-specification:'DejaVu Sans Mono';text-align:center;text-anchor:middle"
         id="path6374" />
      <path
         d="m 592.19824,562.19727 v 11.07421 h -3.61328 v -30.19531 h 3.61328 v 2.79297 q 0.89844,-1.62109 2.38281,-2.46094 1.50391,-0.85937 3.45704,-0.85937 3.96484,0 6.21093,3.0664 2.26563,3.06641 2.26563,8.4961 0,5.33203 -2.26563,8.3789 -2.26562,3.02735 -6.21093,3.02735 -1.99219,0 -3.4961,-0.83985 -1.48437,-0.85937 -2.34375,-2.48046 z m 10.54688,-8.16407 q 0,-4.17968 -1.32813,-6.30859 -1.30859,-2.12891 -3.90625,-2.12891 -2.61719,0 -3.96484,2.14844 -1.34766,2.12891 -1.34766,6.28906 0,4.14063 1.34766,6.28907 1.34765,2.14843 3.96484,2.14843 2.59766,0 3.90625,-2.1289 1.32813,-2.12891 1.32813,-6.3086 z"
         style="font-style:normal;font-variant:normal;font-weight:normal;font-stretch:normal;font-family:'DejaVu Sans Mono';-inkscape-font-specification:'DejaVu Sans Mono';text-align:center;text-anchor:middle"
         id="path6376" />
      <path
         d="m 621.41699,557.02148 q 0,2.42188 0.87891,3.65235 0.89844,1.23047 2.63672,1.23047 h 4.19922 v 3.04687 h -4.55079 q -3.22265,0 -5,-2.07031 -1.75781,-2.07031 -1.75781,-5.85938 V 537.1582 h -5.76172 v -2.8125 h 9.35547 z"
         style="font-style:normal;font-variant:normal;font-weight:normal;font-stretch:normal;font-family:'DejaVu Sans Mono';-inkscape-font-specification:'DejaVu Sans Mono';text-align:center;text-anchor:middle"
         id="path6378" />
      <path
         d="m 646.70996,553.95508 h -1.19141 q -3.14453,0 -4.74609,1.11328 -1.58203,1.09375 -1.58203,3.28125 0,1.97266 1.19141,3.06641 1.1914,1.09375 3.30078,1.09375 2.96875,0 4.66797,-2.05079 1.69921,-2.07031 1.71875,-5.70312 v -0.80078 z m 6.97266,-1.48438 v 12.48047 h -3.61328 v -3.24219 q -1.15235,1.95313 -2.91016,2.89063 -1.73828,0.91797 -4.23828,0.91797 -3.33985,0 -5.33203,-1.875 -1.99219,-1.89453 -1.99219,-5.0586 0,-3.65234 2.44141,-5.54687 2.46093,-1.89453 7.20703,-1.89453 h 4.82422 v -0.56641 q -0.0195,-2.61719 -1.32813,-3.78906 -1.30859,-1.19141 -4.17969,-1.19141 -1.83593,0 -3.71093,0.52735 -1.875,0.52734 -3.65235,1.54297 v -3.59375 q 1.99219,-0.76172 3.8086,-1.13282 1.83593,-0.39062 3.55468,-0.39062 2.71485,0 4.62891,0.80078 1.93359,0.80078 3.125,2.40234 0.74219,0.97657 1.05469,2.42188 0.3125,1.42578 0.3125,4.29687 z"
         style="font-style:normal;font-variant:normal;font-weight:normal;font-stretch:normal;font-family:'DejaVu Sans Mono';-inkscape-font-specification:'DejaVu Sans Mono';text-align:center;text-anchor:middle"
         id="path6380" />
      <path
         d="m 669.05371,536.86523 v 6.21094 h 8.16406 v 2.79297 h -8.16406 v 11.875 q 0,2.42188 0.91797,3.37891 0.91797,0.95703 3.20312,0.95703 h 4.04297 v 2.87109 h -4.39453 q -4.04297,0 -5.70312,-1.62109 -1.66016,-1.6211 -1.66016,-5.58594 v -11.875 h -5.83984 v -2.79297 h 5.83984 v -6.21094 z"
         style="font-style:normal;font-variant:normal;font-weight:normal;font-stretch:normal;font-family:'DejaVu Sans Mono';-inkscape-font-specification:'DejaVu Sans Mono';text-align:center;text-anchor:middle"
         id="path6382" />
      <path
         d="m 702.84277,553.11523 v 1.75782 h -15.5664 v 0.11718 q 0,3.57422 1.85547,5.52735 1.875,1.95312 5.27343,1.95312 1.71875,0 3.59375,-0.54687 1.875,-0.54688 4.00391,-1.66016 v 3.57422 q -2.05078,0.83984 -3.96484,1.25 -1.89454,0.42969 -3.67188,0.42969 -5.09766,0 -7.96875,-3.04688 -2.87109,-3.0664 -2.87109,-8.4375 0,-5.23437 2.8125,-8.35937 2.8125,-3.125 7.5,-3.125 4.17968,0 6.58203,2.83203 2.42187,2.83203 2.42187,7.73437 z m -3.59375,-1.05468 q -0.0781,-3.16407 -1.5039,-4.80469 -1.40625,-1.66016 -4.0625,-1.66016 -2.59766,0 -4.27735,1.71875 -1.67968,1.71875 -1.99218,4.76563 z"
         style="font-style:normal;font-variant:normal;font-weight:normal;font-stretch:normal;font-family:'DejaVu Sans Mono';-inkscape-font-specification:'DejaVu Sans Mono';text-align:center;text-anchor:middle"
         id="path6384" />
    </g>
    <rect
       style="fill:#a5c1ff;fill-opacity:1;stroke:none;stroke-width:0.24660058;stroke-opacity:1"
       id="rect4572"
       width="45.97036"
       height="12.561667"
       x="156.72984"
       y="13.293398" />
    <g
       aria-label="userId"
       transform="matrix(0.14371343,0,0,0.14371343,106.1781,-59.161274)"
       style="font-style:normal;font-weight:normal;font-size:40px;line-height:1.25;font-family:sans-serif;text-align:center;letter-spacing:0px;word-spacing:0px;text-anchor:middle;fill:#000000;fill-opacity:1;stroke:none"
       id="flowRoot4580">
      <path
         d="m 443.26367,556.66992 v -13.55469 h 3.59375 v 13.55469 q 0,2.94922 1.03516,4.33594 1.05469,1.38672 3.24219,1.38672 2.53906,0 3.88671,-1.77735 1.34766,-1.79687 1.34766,-5.13671 v -12.36329 h 3.61328 v 21.83594 h -3.61328 v -3.28125 q -0.95703,1.89453 -2.61719,2.8711 -1.64062,0.97656 -3.84765,0.97656 -3.35938,0 -5,-2.1875 -1.64063,-2.20703 -1.64063,-6.66016 z"
         style="font-style:normal;font-variant:normal;font-weight:normal;font-stretch:normal;font-family:'DejaVu Sans Mono';-inkscape-font-specification:'DejaVu Sans Mono';text-align:center;text-anchor:middle"
         id="path6520" />
      <path
         d="m 482.52148,543.83789 v 3.51563 q -1.54296,-0.89844 -3.10546,-1.34766 -1.5625,-0.44922 -3.1836,-0.44922 -2.4414,0 -3.65234,0.80078 -1.19141,0.78125 -1.19141,2.40235 0,1.46484 0.89844,2.1875 0.89844,0.72265 4.47266,1.40625 l 1.44531,0.27343 q 2.67578,0.50782 4.04297,2.03125 1.38672,1.52344 1.38672,3.96485 0,3.24218 -2.30469,5.07812 -2.30469,1.81641 -6.40625,1.81641 -1.6211,0 -3.39844,-0.35156 -1.77734,-0.33204 -3.84766,-1.01563 v -3.71094 q 2.01172,1.03516 3.84766,1.5625 1.83594,0.50782 3.47656,0.50782 2.38282,0 3.69141,-0.95704 1.30859,-0.97656 1.30859,-2.71484 0,-2.5 -4.78515,-3.45703 l -0.15625,-0.0391 -1.34766,-0.27344 q -3.10547,-0.60547 -4.53125,-2.03125 -1.42578,-1.44531 -1.42578,-3.92578 0,-3.14453 2.12891,-4.84375 2.1289,-1.71875 6.07421,-1.71875 1.75782,0 3.37891,0.33203 1.62109,0.3125 3.18359,0.95703 z"
         style="font-style:normal;font-variant:normal;font-weight:normal;font-stretch:normal;font-family:'DejaVu Sans Mono';-inkscape-font-specification:'DejaVu Sans Mono';text-align:center;text-anchor:middle"
         id="path6522" />
      <path
         d="m 509.29883,553.11523 v 1.75782 h -15.56641 v 0.11718 q 0,3.57422 1.85547,5.52735 1.875,1.95312 5.27344,1.95312 1.71875,0 3.59375,-0.54687 1.875,-0.54688 4.0039,-1.66016 v 3.57422 q -2.05078,0.83984 -3.96484,1.25 -1.89453,0.42969 -3.67187,0.42969 -5.09766,0 -7.96875,-3.04688 -2.8711,-3.0664 -2.8711,-8.4375 0,-5.23437 2.8125,-8.35937 2.8125,-3.125 7.5,-3.125 4.17969,0 6.58203,2.83203 2.42188,2.83203 2.42188,7.73437 z m -3.59375,-1.05468 q -0.0781,-3.16407 -1.50391,-4.80469 -1.40625,-1.66016 -4.0625,-1.66016 -2.59765,0 -4.27734,1.71875 -1.67969,1.71875 -1.99219,4.76563 z"
         style="font-style:normal;font-variant:normal;font-weight:normal;font-stretch:normal;font-family:'DejaVu Sans Mono';-inkscape-font-specification:'DejaVu Sans Mono';text-align:center;text-anchor:middle"
         id="path6524" />
      <path
         d="m 534.20117,547.58789 q -1.15234,-0.89844 -2.34375,-1.30859 -1.1914,-0.41016 -2.61719,-0.41016 -3.35937,0 -5.13671,2.10938 -1.77735,2.10937 -1.77735,6.09375 v 10.8789 h -3.61328 v -21.875 h 3.61328 v 4.27735 q 0.89844,-2.32422 2.75391,-3.55469 1.875,-1.25 4.43359,-1.25 1.32813,0 2.48047,0.33203 1.15234,0.33203 2.20703,1.03516 z"
         style="font-style:normal;font-variant:normal;font-weight:normal;font-stretch:normal;font-family:'DejaVu Sans Mono';-inkscape-font-specification:'DejaVu Sans Mono';text-align:center;text-anchor:middle"
         id="path6526" />
      <path
         d="m 539.63086,535.79102 h 16.19141 v 3.32031 h -6.11329 v 22.51953 h 6.11329 v 3.32031 h -16.19141 v -3.32031 h 6.11328 v -22.51953 h -6.11328 z"
         style="font-style:normal;font-variant:normal;font-weight:normal;font-stretch:normal;font-family:'DejaVu Sans Mono';-inkscape-font-specification:'DejaVu Sans Mono';text-align:center;text-anchor:middle"
         id="path6528" />
      <path
         d="m 576.52539,545.86914 v -11.30859 h 3.59375 v 30.39062 h -3.59375 v -2.7539 q -0.89844,1.62109 -2.40234,2.48046 -1.48438,0.83985 -3.4375,0.83985 -3.96485,0 -6.25,-3.06641 -2.26563,-3.08594 -2.26563,-8.49609 0,-5.33203 2.28516,-8.35938 2.28515,-3.04687 6.23047,-3.04687 1.97265,0 3.47656,0.85937 1.50391,0.83985 2.36328,2.46094 z m -10.56641,8.16406 q 0,4.17969 1.32813,6.3086 1.32812,2.1289 3.92578,2.1289 2.59766,0 3.94531,-2.14843 1.36719,-2.14844 1.36719,-6.28907 0,-4.16015 -1.36719,-6.28906 -1.34765,-2.14844 -3.94531,-2.14844 -2.59766,0 -3.92578,2.12891 -1.32813,2.12891 -1.32813,6.30859 z"
         style="font-style:normal;font-variant:normal;font-weight:normal;font-stretch:normal;font-family:'DejaVu Sans Mono';-inkscape-font-specification:'DejaVu Sans Mono';text-align:center;text-anchor:middle"
         id="path6530" />
    </g>
    <rect
       y="13.293398"
       x="102.47413"
       height="12.561667"
       width="45.97036"
       id="rect4590"
       style="fill:#a5c1ff;fill-opacity:1;stroke:none;stroke-width:0.24660058;stroke-opacity:1" />
    <g
       aria-label="resourceId"
       transform="matrix(0.14371343,0,0,0.14371343,51.688006,-59.963081)"
       style="font-style:normal;font-weight:normal;font-size:40px;line-height:1.25;font-family:sans-serif;text-align:center;letter-spacing:0px;word-spacing:0px;text-anchor:middle;fill:#000000;fill-opacity:1;stroke:none"
       id="flowRoot4588">
      <path
         d="m 413.88867,547.58789 q -1.15234,-0.89844 -2.34375,-1.30859 -1.1914,-0.41016 -2.61719,-0.41016 -3.35937,0 -5.13671,2.10938 -1.77735,2.10937 -1.77735,6.09375 v 10.8789 h -3.61328 v -21.875 h 3.61328 v 4.27735 q 0.89844,-2.32422 2.75391,-3.55469 1.875,-1.25 4.43359,-1.25 1.32813,0 2.48047,0.33203 1.15234,0.33203 2.20703,1.03516 z"
         style="font-style:normal;font-variant:normal;font-weight:normal;font-stretch:normal;font-family:'DejaVu Sans Mono';-inkscape-font-specification:'DejaVu Sans Mono';text-align:center;text-anchor:middle"
         id="path6478" />
      <path
         d="m 437.11133,553.11523 v 1.75782 h -15.56641 v 0.11718 q 0,3.57422 1.85547,5.52735 1.875,1.95312 5.27344,1.95312 1.71875,0 3.59375,-0.54687 1.875,-0.54688 4.0039,-1.66016 v 3.57422 q -2.05078,0.83984 -3.96484,1.25 -1.89453,0.42969 -3.67187,0.42969 -5.09766,0 -7.96875,-3.04688 -2.8711,-3.0664 -2.8711,-8.4375 0,-5.23437 2.8125,-8.35937 2.8125,-3.125 7.5,-3.125 4.17969,0 6.58203,2.83203 2.42188,2.83203 2.42188,7.73437 z m -3.59375,-1.05468 q -0.0781,-3.16407 -1.50391,-4.80469 -1.40625,-1.66016 -4.0625,-1.66016 -2.59765,0 -4.27734,1.71875 -1.67969,1.71875 -1.99219,4.76563 z"
         style="font-style:normal;font-variant:normal;font-weight:normal;font-stretch:normal;font-family:'DejaVu Sans Mono';-inkscape-font-specification:'DejaVu Sans Mono';text-align:center;text-anchor:middle"
         id="path6480" />
      <path
         d="m 458.45898,543.83789 v 3.51563 q -1.54296,-0.89844 -3.10546,-1.34766 -1.5625,-0.44922 -3.1836,-0.44922 -2.4414,0 -3.65234,0.80078 -1.19141,0.78125 -1.19141,2.40235 0,1.46484 0.89844,2.1875 0.89844,0.72265 4.47266,1.40625 l 1.44531,0.27343 q 2.67578,0.50782 4.04297,2.03125 1.38672,1.52344 1.38672,3.96485 0,3.24218 -2.30469,5.07812 -2.30469,1.81641 -6.40625,1.81641 -1.6211,0 -3.39844,-0.35156 -1.77734,-0.33204 -3.84766,-1.01563 v -3.71094 q 2.01172,1.03516 3.84766,1.5625 1.83594,0.50782 3.47656,0.50782 2.38282,0 3.69141,-0.95704 1.30859,-0.97656 1.30859,-2.71484 0,-2.5 -4.78515,-3.45703 l -0.15625,-0.0391 -1.34766,-0.27344 q -3.10547,-0.60547 -4.53125,-2.03125 -1.42578,-1.44531 -1.42578,-3.92578 0,-3.14453 2.12891,-4.84375 2.1289,-1.71875 6.07421,-1.71875 1.75782,0 3.37891,0.33203 1.62109,0.3125 3.18359,0.95703 z"
         style="font-style:normal;font-variant:normal;font-weight:normal;font-stretch:normal;font-family:'DejaVu Sans Mono';-inkscape-font-specification:'DejaVu Sans Mono';text-align:center;text-anchor:middle"
         id="path6482" />
      <path
         d="m 475.54883,545.5957 q -2.73438,0 -4.14063,2.12891 -1.40625,2.12891 -1.40625,6.30859 0,4.16016 1.40625,6.3086 1.40625,2.1289 4.14063,2.1289 2.7539,0 4.16015,-2.1289 1.40625,-2.14844 1.40625,-6.3086 0,-4.17968 -1.40625,-6.30859 -1.40625,-2.12891 -4.16015,-2.12891 z m 0,-3.04687 q 4.55078,0 6.95312,2.94922 2.42188,2.94922 2.42188,8.53515 0,5.60547 -2.40235,8.55469 -2.40234,2.92969 -6.97265,2.92969 -4.55078,0 -6.95313,-2.92969 -2.40234,-2.94922 -2.40234,-8.55469 0,-5.58593 2.40234,-8.53515 2.40235,-2.94922 6.95313,-2.94922 z"
         style="font-style:normal;font-variant:normal;font-weight:normal;font-stretch:normal;font-family:'DejaVu Sans Mono';-inkscape-font-specification:'DejaVu Sans Mono';text-align:center;text-anchor:middle"
         id="path6484" />
      <path
         d="m 491.38867,556.66992 v -13.55469 h 3.59375 v 13.55469 q 0,2.94922 1.03516,4.33594 1.05469,1.38672 3.24219,1.38672 2.53906,0 3.88671,-1.77735 1.34766,-1.79687 1.34766,-5.13671 v -12.36329 h 3.61328 v 21.83594 h -3.61328 v -3.28125 q -0.95703,1.89453 -2.61719,2.8711 -1.64062,0.97656 -3.84765,0.97656 -3.35938,0 -5,-2.1875 -1.64063,-2.20703 -1.64063,-6.66016 z"
         style="font-style:normal;font-variant:normal;font-weight:normal;font-stretch:normal;font-family:'DejaVu Sans Mono';-inkscape-font-specification:'DejaVu Sans Mono';text-align:center;text-anchor:middle"
         id="path6486" />
      <path
         d="m 534.20117,547.58789 q -1.15234,-0.89844 -2.34375,-1.30859 -1.1914,-0.41016 -2.61719,-0.41016 -3.35937,0 -5.13671,2.10938 -1.77735,2.10937 -1.77735,6.09375 v 10.8789 h -3.61328 v -21.875 h 3.61328 v 4.27735 q 0.89844,-2.32422 2.75391,-3.55469 1.875,-1.25 4.43359,-1.25 1.32813,0 2.48047,0.33203 1.15234,0.33203 2.20703,1.03516 z"
         style="font-style:normal;font-variant:normal;font-weight:normal;font-stretch:normal;font-family:'DejaVu Sans Mono';-inkscape-font-specification:'DejaVu Sans Mono';text-align:center;text-anchor:middle"
         id="path6488" />
      <path
         d="m 556.42773,563.83789 q -1.44531,0.83984 -2.98828,1.25 -1.52343,0.42969 -3.125,0.42969 -5.07812,0 -7.94922,-3.04688 -2.85156,-3.04687 -2.85156,-8.4375 0,-5.39062 2.85156,-8.4375 2.8711,-3.04687 7.94922,-3.04687 1.58203,0 3.08594,0.41015 1.50391,0.41016 3.02734,1.26954 v 3.76953 q -1.42578,-1.26953 -2.87109,-1.83594 -1.42578,-0.56641 -3.24219,-0.56641 -3.3789,0 -5.19531,2.1875 -1.81641,2.1875 -1.81641,6.25 0,4.04297 1.81641,6.25 1.83594,2.1875 5.19531,2.1875 1.875,0 3.35938,-0.5664 1.48437,-0.58594 2.7539,-1.79688 z"
         style="font-style:normal;font-variant:normal;font-weight:normal;font-stretch:normal;font-family:'DejaVu Sans Mono';-inkscape-font-specification:'DejaVu Sans Mono';text-align:center;text-anchor:middle"
         id="path6490" />
      <path
         d="m 581.48633,553.11523 v 1.75782 h -15.56641 v 0.11718 q 0,3.57422 1.85547,5.52735 1.875,1.95312 5.27344,1.95312 1.71875,0 3.59375,-0.54687 1.875,-0.54688 4.0039,-1.66016 v 3.57422 q -2.05078,0.83984 -3.96484,1.25 -1.89453,0.42969 -3.67187,0.42969 -5.09766,0 -7.96875,-3.04688 -2.8711,-3.0664 -2.8711,-8.4375 0,-5.23437 2.8125,-8.35937 2.8125,-3.125 7.5,-3.125 4.17969,0 6.58203,2.83203 2.42188,2.83203 2.42188,7.73437 z m -3.59375,-1.05468 q -0.0781,-3.16407 -1.50391,-4.80469 -1.40625,-1.66016 -4.0625,-1.66016 -2.59765,0 -4.27734,1.71875 -1.67969,1.71875 -1.99219,4.76563 z"
         style="font-style:normal;font-variant:normal;font-weight:normal;font-stretch:normal;font-family:'DejaVu Sans Mono';-inkscape-font-specification:'DejaVu Sans Mono';text-align:center;text-anchor:middle"
         id="path6492" />
      <path
         d="m 587.75586,535.79102 h 16.19141 v 3.32031 h -6.11329 v 22.51953 h 6.11329 v 3.32031 h -16.19141 v -3.32031 h 6.11328 v -22.51953 h -6.11328 z"
         style="font-style:normal;font-variant:normal;font-weight:normal;font-stretch:normal;font-family:'DejaVu Sans Mono';-inkscape-font-specification:'DejaVu Sans Mono';text-align:center;text-anchor:middle"
         id="path6494" />
      <path
         d="m 624.65039,545.86914 v -11.30859 h 3.59375 v 30.39062 h -3.59375 v -2.7539 q -0.89844,1.62109 -2.40234,2.48046 -1.48438,0.83985 -3.4375,0.83985 -3.96485,0 -6.25,-3.06641 -2.26563,-3.08594 -2.26563,-8.49609 0,-5.33203 2.28516,-8.35938 2.28515,-3.04687 6.23047,-3.04687 1.97265,0 3.47656,0.85937 1.50391,0.83985 2.36328,2.46094 z m -10.56641,8.16406 q 0,4.17969 1.32813,6.3086 1.32812,2.1289 3.92578,2.1289 2.59766,0 3.94531,-2.14843 1.36719,-2.14844 1.36719,-6.28907 0,-4.16015 -1.36719,-6.28906 -1.34765,-2.14844 -3.94531,-2.14844 -2.59766,0 -3.92578,2.12891 -1.32813,2.12891 -1.32813,6.30859 z"
         style="font-style:normal;font-variant:normal;font-weight:normal;font-stretch:normal;font-family:'DejaVu Sans Mono';-inkscape-font-specification:'DejaVu Sans Mono';text-align:center;text-anchor:middle"
         id="path6496" />
    </g>
    <path
       style="fill:#69715b;fill-opacity:1;fill-rule:evenodd;stroke:#000000;stroke-width:0.34395832;stroke-linecap:butt;stroke-linejoin:miter;stroke-miterlimit:4;stroke-dasharray:none;stroke-opacity:1;marker-end:url(#marker5105)"
       d="m 170.75724,25.855065 -51.4305,36.060977"
       id="path4643"
       inkscape:connector-type="polyline"
       inkscape:connector-curvature="3" />
    <path
       style="fill:none;fill-rule:evenodd;stroke:#000000;stroke-width:0.34395832;stroke-linecap:butt;stroke-linejoin:miter;stroke-miterlimit:4;stroke-dasharray:none;stroke-opacity:1;marker-end:url(#marker5247)"
       d="M 117.55042,25.855065 73.214528,61.064344"
       id="path5101"
       inkscape:connector-type="polyline"
       inkscape:connector-curvature="3" />
    <path
       style="fill:none;fill-rule:evenodd;stroke:#000000;stroke-width:0.34395832;stroke-linecap:butt;stroke-linejoin:miter;stroke-miterlimit:4;stroke-dasharray:none;stroke-opacity:1;marker-end:url(#marker5473)"
       d="M 40.238511,35.292946 51.18616,56.791035"
       id="path5161"
       inkscape:connector-type="polyline"
       inkscape:connector-curvature="3" />
    <path
       style="fill:none;fill-rule:evenodd;stroke:#000000;stroke-width:0.34395832;stroke-linecap:butt;stroke-linejoin:miter;stroke-miterlimit:4;stroke-dasharray:none;stroke-opacity:1;marker-end:url(#marker5409)"
       d="M 142.11899,84.299158 116.8415,108.79637"
       id="path5215"
       inkscape:connector-type="polyline"
       inkscape:connector-curvature="3" />
    <path
       style="fill:none;fill-rule:evenodd;stroke:#000000;stroke-width:0.34395832;stroke-linecap:butt;stroke-linejoin:miter;stroke-miterlimit:4;stroke-dasharray:none;stroke-opacity:1;marker-end:url(#marker5299)"
       d="m 104.30592,89.913454 -0.17613,13.783786"
       id="path5217"
       inkscape:connector-type="polyline"
       inkscape:connector-curvature="3" />
    <path
       style="fill:none;fill-rule:evenodd;stroke:#000000;stroke-width:0.34395832;stroke-linecap:butt;stroke-linejoin:miter;stroke-miterlimit:4;stroke-dasharray:none;stroke-opacity:1;marker-end:url(#marker5351)"
       d="M 71.21727,85.570827 92.247638,108.58032"
       id="path5219"
       inkscape:connector-type="polyline"
       inkscape:connector-curvature="3" />
    <g
       aria-label="dependencies"
       transform="matrix(0.19719561,0,0,0.19719561,103.07844,-15.306724)"
       style="font-style:normal;font-weight:normal;font-size:40px;line-height:1.25;font-family:sans-serif;text-align:end;letter-spacing:0px;word-spacing:0px;text-anchor:end;fill:#000000;fill-opacity:1;stroke:none"
       id="flowRoot6219">
      <path
         d="m 258.27734,783.09606 -6.71875,0.42968 -0.29297,-0.27343 v -1.79688 l -0.15625,-0.0391 q -1.01562,1.13281 -2.51953,1.85547 -1.48437,0.72265 -3.0664,0.72265 -1.64063,0 -3.1836,-0.72265 -1.52343,-0.74219 -2.65625,-2.07032 -1.15234,-1.34765 -1.83593,-3.24218 -0.66407,-1.89453 -0.66407,-4.17969 0,-2.08984 0.72266,-3.96484 0.72266,-1.875 1.99219,-3.28125 1.1914,-1.3086 2.91015,-2.08985 1.73828,-0.78125 3.53516,-0.78125 1.34766,0 2.63672,0.35156 1.30859,0.33204 2.24609,0.85938 v -6.69922 q 0,-0.82031 -0.27344,-1.48437 -0.27343,-0.6836 -0.76171,-1.03516 -0.54688,-0.37109 -1.48438,-0.52734 -0.91797,-0.17579 -1.99219,-0.25391 v -1.21094 l 7.8711,-0.44922 0.29297,0.29297 v 25.97656 q 0,0.6836 0.2539,1.17188 0.27344,0.46875 0.78125,0.80078 0.3711,0.23438 1.07422,0.29297 0.70313,0.0586 1.28906,0.0781 z m -7.05078,-2.98829 v -11.26953 q -0.15625,-0.50781 -0.50781,-1.09375 -0.35156,-0.58593 -0.87891,-1.07422 -0.5664,-0.48828 -1.32812,-0.80078 -0.76172,-0.33203 -1.77735,-0.33203 -1.17187,0 -2.16796,0.60547 -0.97657,0.60547 -1.73829,1.73828 -0.72265,1.09375 -1.15234,2.79297 -0.41016,1.67969 -0.41016,3.73047 0,1.64062 0.3125,2.98828 0.3125,1.32813 1.05469,2.48047 0.6836,1.09375 1.73828,1.75781 1.07422,0.66406 2.53907,0.66406 1.5625,0 2.57812,-0.68359 1.03516,-0.68359 1.73828,-1.50391 z"
         style="font-style:normal;font-variant:normal;font-weight:normal;font-stretch:normal;font-family:Pagul;-inkscape-font-specification:Pagul;text-align:end;text-anchor:end"
         id="path6387" />
      <path
         d="m 277.26172,778.72106 q -1.21094,2.30468 -3.24219,3.67187 -2.03125,1.36719 -4.66797,1.36719 -2.32422,0 -4.08203,-0.82031 -1.73828,-0.82032 -2.87109,-2.22657 -1.13282,-1.40625 -1.69922,-3.28125 -0.54688,-1.875 -0.54688,-3.96484 0,-1.875 0.58594,-3.67188 0.60547,-1.8164 1.75781,-3.26171 1.11328,-1.38672 2.75391,-2.22657 1.66016,-0.85937 3.71094,-0.85937 2.10937,0 3.61328,0.66406 1.5039,0.66406 2.4414,1.81641 0.89844,1.09375 1.32813,2.57812 0.44922,1.48438 0.44922,3.22266 v 1.28906 h -12.75391 q 0,1.89453 0.35156,3.4375 0.3711,1.54297 1.15235,2.71484 0.76172,1.13282 1.99219,1.79688 1.23046,0.64453 2.92968,0.64453 1.73828,0 2.98828,-0.80078 1.26954,-0.82031 2.44141,-2.92969 z m -4.31641,-6.75782 q 0,-1.09375 -0.19531,-2.34375 -0.17578,-1.25 -0.58594,-2.08984 -0.44922,-0.89844 -1.23047,-1.46484 -0.78125,-0.56641 -2.01172,-0.56641 -2.05078,0 -3.41796,1.71875 -1.34766,1.69922 -1.46485,4.74609 z"
         style="font-style:normal;font-variant:normal;font-weight:normal;font-stretch:normal;font-family:Pagul;-inkscape-font-specification:Pagul;text-align:end;text-anchor:end"
         id="path6389" />
      <path
         d="m 297.125,766.67027 q 1.15234,1.36719 1.77734,3.1836 0.64453,1.79687 0.64453,4.12109 0,2.28516 -0.76171,4.17969 -0.76172,1.875 -2.01172,3.20312 -1.3086,1.34766 -2.91016,2.07032 -1.60156,0.72265 -3.39844,0.72265 -1.73828,0 -2.85156,-0.39062 -1.11328,-0.39063 -1.81641,-0.91797 h -0.15625 v 5.78125 q 0,0.70312 0.27344,1.17187 0.27344,0.46875 0.83985,0.6836 0.46875,0.17578 1.32812,0.33203 0.87891,0.17578 1.44531,0.19531 v 1.3086 h -10.76172 v -1.3086 q 0.60547,-0.0391 1.17188,-0.0977 0.56641,-0.0586 1.01562,-0.19532 0.58594,-0.19531 0.82032,-0.68359 0.23437,-0.48828 0.23437,-1.15234 v -20.48829 q 0,-0.58593 -0.29297,-1.13281 -0.29297,-0.54687 -0.76172,-0.8789 -0.35156,-0.23438 -0.97656,-0.35157 -0.625,-0.13672 -1.21094,-0.17578 v -1.26953 l 6.5625,-0.42969 0.27344,0.23438 v 2.16797 l 0.15625,0.0391 q 1.01563,-1.17188 2.51953,-1.95313 1.50391,-0.78125 2.98828,-0.78125 1.79688,0 3.28125,0.76172 1.50391,0.76172 2.57813,2.05078 z m -3.18359,13.84766 q 0.78125,-1.21094 1.15234,-2.8125 0.37109,-1.60156 0.37109,-3.57422 0,-1.44531 -0.3125,-2.94922 -0.3125,-1.5039 -0.97656,-2.61718 -0.66406,-1.13282 -1.73828,-1.83594 -1.07422,-0.70313 -2.57813,-0.70313 -1.44531,0 -2.46093,0.64453 -1.01563,0.625 -1.75782,1.50391 v 11.38672 q 0.17579,0.52734 0.56641,1.09375 0.41016,0.56641 0.89844,0.97656 0.60547,0.48828 1.30859,0.80078 0.70313,0.29297 1.71875,0.29297 1.09375,0 2.10938,-0.5664 1.01562,-0.58594 1.69922,-1.64063 z"
         style="font-style:normal;font-variant:normal;font-weight:normal;font-stretch:normal;font-family:Pagul;-inkscape-font-specification:Pagul;text-align:end;text-anchor:end"
         id="path6391" />
      <path
         d="m 319.52734,778.72106 q -1.21093,2.30468 -3.24218,3.67187 -2.03125,1.36719 -4.66797,1.36719 -2.32422,0 -4.08203,-0.82031 -1.73829,-0.82032 -2.8711,-2.22657 -1.13281,-1.40625 -1.69922,-3.28125 -0.54687,-1.875 -0.54687,-3.96484 0,-1.875 0.58594,-3.67188 0.60546,-1.8164 1.75781,-3.26171 1.11328,-1.38672 2.7539,-2.22657 1.66016,-0.85937 3.71094,-0.85937 2.10938,0 3.61328,0.66406 1.50391,0.66406 2.44141,1.81641 0.89844,1.09375 1.32812,2.57812 0.44922,1.48438 0.44922,3.22266 v 1.28906 h -12.7539 q 0,1.89453 0.35156,3.4375 0.37109,1.54297 1.15234,2.71484 0.76172,1.13282 1.99219,1.79688 1.23047,0.64453 2.92969,0.64453 1.73828,0 2.98828,-0.80078 1.26953,-0.82031 2.44141,-2.92969 z m -4.3164,-6.75782 q 0,-1.09375 -0.19532,-2.34375 -0.17578,-1.25 -0.58593,-2.08984 -0.44922,-0.89844 -1.23047,-1.46484 -0.78125,-0.56641 -2.01172,-0.56641 -2.05078,0 -3.41797,1.71875 -1.34766,1.69922 -1.46484,4.74609 z"
         style="font-style:normal;font-variant:normal;font-weight:normal;font-stretch:normal;font-family:Pagul;-inkscape-font-specification:Pagul;text-align:end;text-anchor:end"
         id="path6393" />
      <path
         d="m 343.0625,783.83824 h -9.43359 v -1.28906 q 0.44921,-0.0391 0.97656,-0.0781 0.54687,-0.0391 0.89844,-0.15625 0.54687,-0.17579 0.80078,-0.60547 0.27343,-0.44922 0.27343,-1.15235 v -9.90234 q 0,-2.05078 -0.97656,-3.16406 -0.95703,-1.11328 -2.34375,-1.11328 -1.03515,0 -1.89453,0.33203 -0.85937,0.3125 -1.52344,0.78125 -0.64453,0.44922 -1.03515,0.97656 -0.3711,0.50781 -0.54688,0.82031 v 11.07422 q 0,0.66406 0.27344,1.09375 0.27344,0.42969 0.82031,0.66406 0.41016,0.19532 0.87891,0.29297 0.48828,0.0977 0.99609,0.13672 v 1.28906 h -9.43359 v -1.28906 q 0.44922,-0.0391 0.91797,-0.0781 0.48828,-0.0391 0.83984,-0.15625 0.54688,-0.17579 0.80078,-0.60547 0.27344,-0.44922 0.27344,-1.15235 v -11.89453 q 0,-0.66406 -0.29297,-1.21094 -0.27344,-0.5664 -0.78125,-0.91796 -0.37109,-0.23438 -0.87891,-0.33204 -0.50781,-0.11718 -1.09375,-0.15625 v -1.26953 l 6.40625,-0.42968 0.27344,0.27343 v 2.71485 h 0.0977 q 0.46875,-0.46875 1.17187,-1.11328 0.70313,-0.66407 1.32813,-1.07422 0.72265,-0.46875 1.71875,-0.78125 0.99609,-0.3125 2.24609,-0.3125 2.77344,0 4.10156,1.73828 1.34766,1.71875 1.34766,4.58984 v 10.01953 q 0,0.6836 0.23438,1.11328 0.23437,0.41016 0.80078,0.64454 0.46875,0.19531 0.80078,0.27343 0.35156,0.0781 0.95703,0.11719 z"
         style="font-style:normal;font-variant:normal;font-weight:normal;font-stretch:normal;font-family:Pagul;-inkscape-font-specification:Pagul;text-align:end;text-anchor:end"
         id="path6395" />
      <path
         d="m 366.55859,783.09606 -6.71875,0.42968 -0.29297,-0.27343 v -1.79688 l -0.15625,-0.0391 q -1.01562,1.13281 -2.51953,1.85547 -1.48437,0.72265 -3.0664,0.72265 -1.64063,0 -3.1836,-0.72265 -1.52343,-0.74219 -2.65625,-2.07032 -1.15234,-1.34765 -1.83593,-3.24218 -0.66407,-1.89453 -0.66407,-4.17969 0,-2.08984 0.72266,-3.96484 0.72266,-1.875 1.99219,-3.28125 1.1914,-1.3086 2.91015,-2.08985 1.73828,-0.78125 3.53516,-0.78125 1.34766,0 2.63672,0.35156 1.30859,0.33204 2.24609,0.85938 v -6.69922 q 0,-0.82031 -0.27344,-1.48437 -0.27343,-0.6836 -0.76171,-1.03516 -0.54688,-0.37109 -1.48438,-0.52734 -0.91797,-0.17579 -1.99219,-0.25391 v -1.21094 l 7.8711,-0.44922 0.29297,0.29297 v 25.97656 q 0,0.6836 0.2539,1.17188 0.27344,0.46875 0.78125,0.80078 0.3711,0.23438 1.07422,0.29297 0.70313,0.0586 1.28906,0.0781 z m -7.05078,-2.98829 v -11.26953 q -0.15625,-0.50781 -0.50781,-1.09375 -0.35156,-0.58593 -0.87891,-1.07422 -0.5664,-0.48828 -1.32812,-0.80078 -0.76172,-0.33203 -1.77735,-0.33203 -1.17187,0 -2.16796,0.60547 -0.97657,0.60547 -1.73829,1.73828 -0.72265,1.09375 -1.15234,2.79297 -0.41016,1.67969 -0.41016,3.73047 0,1.64062 0.3125,2.98828 0.3125,1.32813 1.05469,2.48047 0.6836,1.09375 1.73828,1.75781 1.07422,0.66406 2.53907,0.66406 1.5625,0 2.57812,-0.68359 1.03516,-0.68359 1.73828,-1.50391 z"
         style="font-style:normal;font-variant:normal;font-weight:normal;font-stretch:normal;font-family:Pagul;-inkscape-font-specification:Pagul;text-align:end;text-anchor:end"
         id="path6397" />
      <path
         d="m 385.54297,778.72106 q -1.21094,2.30468 -3.24219,3.67187 -2.03125,1.36719 -4.66797,1.36719 -2.32422,0 -4.08203,-0.82031 -1.73828,-0.82032 -2.87109,-2.22657 -1.13282,-1.40625 -1.69922,-3.28125 -0.54688,-1.875 -0.54688,-3.96484 0,-1.875 0.58594,-3.67188 0.60547,-1.8164 1.75781,-3.26171 1.11328,-1.38672 2.75391,-2.22657 1.66016,-0.85937 3.71094,-0.85937 2.10937,0 3.61328,0.66406 1.5039,0.66406 2.4414,1.81641 0.89844,1.09375 1.32813,2.57812 0.44922,1.48438 0.44922,3.22266 v 1.28906 h -12.75391 q 0,1.89453 0.35156,3.4375 0.3711,1.54297 1.15235,2.71484 0.76172,1.13282 1.99219,1.79688 1.23046,0.64453 2.92968,0.64453 1.73828,0 2.98828,-0.80078 1.26954,-0.82031 2.44141,-2.92969 z m -4.31641,-6.75782 q 0,-1.09375 -0.19531,-2.34375 -0.17578,-1.25 -0.58594,-2.08984 -0.44922,-0.89844 -1.23047,-1.46484 -0.78125,-0.56641 -2.01172,-0.56641 -2.05078,0 -3.41796,1.71875 -1.34766,1.69922 -1.46485,4.74609 z"
         style="font-style:normal;font-variant:normal;font-weight:normal;font-stretch:normal;font-family:Pagul;-inkscape-font-specification:Pagul;text-align:end;text-anchor:end"
         id="path6399" />
      <path
         d="m 409.07812,783.83824 h -9.43359 v -1.28906 q 0.44922,-0.0391 0.97656,-0.0781 0.54688,-0.0391 0.89844,-0.15625 0.54688,-0.17579 0.80078,-0.60547 0.27344,-0.44922 0.27344,-1.15235 v -9.90234 q 0,-2.05078 -0.97656,-3.16406 -0.95703,-1.11328 -2.34375,-1.11328 -1.03516,0 -1.89453,0.33203 -0.85938,0.3125 -1.52344,0.78125 -0.64453,0.44922 -1.03516,0.97656 -0.37109,0.50781 -0.54687,0.82031 v 11.07422 q 0,0.66406 0.27343,1.09375 0.27344,0.42969 0.82032,0.66406 0.41015,0.19532 0.8789,0.29297 0.48828,0.0977 0.9961,0.13672 v 1.28906 h -9.4336 v -1.28906 q 0.44922,-0.0391 0.91797,-0.0781 0.48828,-0.0391 0.83985,-0.15625 0.54687,-0.17579 0.80078,-0.60547 0.27343,-0.44922 0.27343,-1.15235 v -11.89453 q 0,-0.66406 -0.29296,-1.21094 -0.27344,-0.5664 -0.78125,-0.91796 -0.3711,-0.23438 -0.87891,-0.33204 -0.50781,-0.11718 -1.09375,-0.15625 v -1.26953 L 394,764.34606 l 0.27344,0.27343 v 2.71485 h 0.0976 q 0.46875,-0.46875 1.17188,-1.11328 0.70312,-0.66407 1.32812,-1.07422 0.72266,-0.46875 1.71875,-0.78125 0.9961,-0.3125 2.2461,-0.3125 2.77343,0 4.10156,1.73828 1.34766,1.71875 1.34766,4.58984 v 10.01953 q 0,0.6836 0.23437,1.11328 0.23438,0.41016 0.80078,0.64454 0.46875,0.19531 0.80078,0.27343 0.35157,0.0781 0.95703,0.11719 z"
         style="font-style:normal;font-variant:normal;font-weight:normal;font-stretch:normal;font-family:Pagul;-inkscape-font-specification:Pagul;text-align:end;text-anchor:end"
         id="path6401" />
      <path
         d="m 420.38672,783.95543 q -4.17969,0 -6.54297,-2.77344 -2.36328,-2.77343 -2.36328,-7.4414 0,-2.03125 0.625,-3.78907 0.64453,-1.77734 1.85547,-3.22265 1.15234,-1.38672 2.89062,-2.22656 1.73828,-0.85938 3.78906,-0.85938 2.83204,0 4.60938,1.36719 1.77734,1.34765 1.77734,3.6914 0,0.97657 -0.46875,1.73829 -0.46875,0.74218 -1.54297,0.74218 -1.15234,0 -1.79687,-0.58593 -0.625,-0.58594 -0.625,-1.3086 0,-0.8789 0.23437,-1.79687 0.23438,-0.9375 0.27344,-1.36719 -0.35156,-0.60547 -1.05469,-0.80078 -0.68359,-0.21485 -1.48437,-0.21485 -0.9375,0 -1.79688,0.41016 -0.83984,0.39063 -1.64062,1.46484 -0.72266,0.97657 -1.17188,2.63672 -0.44921,1.66016 -0.44921,3.96485 0,3.63281 1.60156,5.9375 1.62109,2.28515 4.23828,2.28515 1.89453,0 3.16406,-0.91797 1.28906,-0.91796 2.38281,-2.7539 l 1.25,0.82031 q -1.28906,2.30469 -3.39843,3.65234 -2.10938,1.34766 -4.35547,1.34766 z"
         style="font-style:normal;font-variant:normal;font-weight:normal;font-stretch:normal;font-family:Pagul;-inkscape-font-specification:Pagul;text-align:end;text-anchor:end"
         id="path6403" />
      <path
         d="m 439.03906,783.83824 h -9.3164 v -1.28906 q 0.44921,-0.0391 0.91796,-0.0781 0.48829,-0.0391 0.83985,-0.15625 0.54687,-0.17579 0.80078,-0.60547 0.27344,-0.44922 0.27344,-1.15235 v -11.89453 q 0,-0.625 -0.29297,-1.13281 -0.27344,-0.52734 -0.78125,-0.87891 -0.3711,-0.23437 -1.07422,-0.39062 -0.70313,-0.17578 -1.28906,-0.21485 v -1.26953 l 6.79687,-0.42968 0.27344,0.27343 v 15.70313 q 0,0.68359 0.25391,1.13281 0.27343,0.44922 0.83984,0.66406 0.42969,0.17578 0.83984,0.29297 0.41016,0.0977 0.91797,0.13672 z m -2.46094,-27.08984 q 0,1.11328 -0.74218,1.95312 -0.72266,0.82032 -1.79688,0.82032 -0.99609,0 -1.73828,-0.78125 -0.72266,-0.80078 -0.72266,-1.81641 0,-1.07422 0.72266,-1.875 0.74219,-0.80078 1.73828,-0.80078 1.11328,0 1.81641,0.76172 0.72265,0.74219 0.72265,1.73828 z"
         style="font-style:normal;font-variant:normal;font-weight:normal;font-stretch:normal;font-family:Pagul;-inkscape-font-specification:Pagul;text-align:end;text-anchor:end"
         id="path6405" />
      <path
         d="m 458.51172,778.72106 q -1.21094,2.30468 -3.24219,3.67187 -2.03125,1.36719 -4.66797,1.36719 -2.32422,0 -4.08203,-0.82031 -1.73828,-0.82032 -2.87109,-2.22657 -1.13282,-1.40625 -1.69922,-3.28125 -0.54688,-1.875 -0.54688,-3.96484 0,-1.875 0.58594,-3.67188 0.60547,-1.8164 1.75781,-3.26171 1.11328,-1.38672 2.75391,-2.22657 1.66016,-0.85937 3.71094,-0.85937 2.10937,0 3.61328,0.66406 1.5039,0.66406 2.4414,1.81641 0.89844,1.09375 1.32813,2.57812 0.44922,1.48438 0.44922,3.22266 v 1.28906 h -12.75391 q 0,1.89453 0.35156,3.4375 0.3711,1.54297 1.15235,2.71484 0.76172,1.13282 1.99219,1.79688 1.23046,0.64453 2.92968,0.64453 1.73828,0 2.98828,-0.80078 1.26954,-0.82031 2.44141,-2.92969 z m -4.31641,-6.75782 q 0,-1.09375 -0.19531,-2.34375 -0.17578,-1.25 -0.58594,-2.08984 -0.44922,-0.89844 -1.23047,-1.46484 -0.78125,-0.56641 -2.01172,-0.56641 -2.05078,0 -3.41796,1.71875 -1.34766,1.69922 -1.46485,4.74609 z"
         style="font-style:normal;font-variant:normal;font-weight:normal;font-stretch:normal;font-family:Pagul;-inkscape-font-specification:Pagul;text-align:end;text-anchor:end"
         id="path6407" />
      <path
         d="m 473.49219,773.81871 q 0.80078,0.70313 1.23047,1.6211 0.42968,0.91796 0.42968,2.24609 0,2.67578 -2.01172,4.375 -1.99218,1.69922 -5.17578,1.69922 -1.67968,0 -3.10547,-0.60547 -1.40625,-0.60547 -2.01171,-1.11328 l -0.39063,1.26953 h -1.46484 l -0.19532,-6.69922 h 1.34766 q 0.15625,0.76172 0.66406,1.77734 0.50782,1.01563 1.23047,1.83594 0.76172,0.85938 1.81641,1.44531 1.07422,0.58594 2.40234,0.58594 1.875,0 2.89063,-0.83984 1.01562,-0.85938 1.01562,-2.44141 0,-0.82031 -0.33203,-1.40625 -0.3125,-0.60547 -0.9375,-1.05469 -0.64453,-0.44921 -1.58203,-0.80078 -0.9375,-0.37109 -2.08984,-0.72265 -0.91797,-0.27344 -2.05079,-0.74219 -1.11328,-0.48828 -1.91406,-1.13281 -0.85937,-0.6836 -1.40625,-1.67969 -0.54687,-0.99609 -0.54687,-2.34375 0,-2.36328 1.75781,-4.00391 1.75781,-1.64062 4.70703,-1.64062 1.13281,0 2.30469,0.29297 1.1914,0.29297 1.93359,0.70312 l 0.44922,-1.01562 h 1.40625 l 0.29297,6.1914 h -1.34766 q -0.41015,-2.07031 -1.77734,-3.35937 -1.34766,-1.3086 -3.30078,-1.3086 -1.60156,0 -2.51953,0.80079 -0.91797,0.80078 -0.91797,1.93359 0,0.87891 0.29297,1.46484 0.3125,0.58594 0.91797,0.9961 0.58593,0.39062 1.46484,0.74218 0.89844,0.33204 2.20703,0.76172 1.28906,0.41016 2.42188,0.95703 1.15234,0.54688 1.89453,1.21094 z"
         style="font-style:normal;font-variant:normal;font-weight:normal;font-stretch:normal;font-family:Pagul;-inkscape-font-specification:Pagul;text-align:end;text-anchor:end"
         id="path6409" />
    </g>
    <g
       aria-label="dependencies memoized"
       transform="matrix(0.12540376,0,0,0.12540376,27.306592,-70.557157)"
       style="font-style:normal;font-weight:normal;font-size:40px;line-height:1.25;font-family:sans-serif;text-align:end;letter-spacing:0px;word-spacing:0px;text-anchor:end;fill:#000000;fill-opacity:1;stroke:none"
       id="flowRoot6233">
      <flowRoot
         xml:space="preserve"
         id="flowRoot1030"
         style="font-style:normal;font-weight:normal;font-size:40px;line-height:1.25;font-family:sans-serif;letter-spacing:0px;word-spacing:0px;fill:#000000;fill-opacity:1;stroke:none"
         transform="matrix(0.80176224,0,0,0.80176224,12.671871,849.99238)"><flowRegion
           id="flowRegion1032"><rect
             id="rect1034"
             width="431.50394"
             height="107.18095"
             x="152.85715"
             y="-98.884499" /></flowRegion><flowPara
           id="flowPara1036"
           style="font-style:normal;font-variant:normal;font-weight:normal;font-stretch:normal;font-family:'DejaVu Serif';-inkscape-font-specification:'DejaVu Serif'">Resource</flowPara><flowPara
           id="flowPara1038"
           style="font-style:normal;font-variant:normal;font-weight:normal;font-stretch:normal;font-family:'DejaVu Serif';-inkscape-font-specification:'DejaVu Serif'">dependencies</flowPara></flowRoot>    </g>
    <g
       aria-label="parameters"
       transform="matrix(0.12653709,0,0,0.12653709,149.57722,-64.349115)"
       style="font-style:normal;font-weight:normal;font-size:40px;line-height:1.25;font-family:sans-serif;text-align:end;letter-spacing:0px;word-spacing:0px;text-anchor:end;fill:#000000;fill-opacity:1;stroke:none"
       id="flowRoot6243">
      <path
         d="m 229.2832,768.7816 q 1.15235,1.36719 1.77735,3.1836 0.64453,1.79687 0.64453,4.12109 0,2.28516 -0.76172,4.17969 -0.76172,1.875 -2.01172,3.20312 -1.30859,1.34766 -2.91016,2.07032 -1.60156,0.72265 -3.39843,0.72265 -1.73828,0 -2.85157,-0.39062 -1.11328,-0.39063 -1.8164,-0.91797 h -0.15625 v 5.78125 q 0,0.70312 0.27344,1.17187 0.27343,0.46875 0.83984,0.6836 0.46875,0.17578 1.32812,0.33203 0.87891,0.17578 1.44532,0.19531 v 1.30859 h -10.76172 v -1.30859 q 0.60547,-0.0391 1.17187,-0.0977 0.56641,-0.0586 1.01563,-0.19531 0.58594,-0.19531 0.82031,-0.68359 0.23438,-0.48828 0.23438,-1.15235 v -20.48828 q 0,-0.58593 -0.29297,-1.13281 -0.29297,-0.54687 -0.76172,-0.87891 -0.35156,-0.23437 -0.97656,-0.35156 -0.625,-0.13672 -1.21094,-0.17578 v -1.26953 l 6.5625,-0.42969 0.27344,0.23438 v 2.16797 l 0.15625,0.0391 q 1.01562,-1.17188 2.51953,-1.95313 1.5039,-0.78125 2.98828,-0.78125 1.79687,0 3.28125,0.76172 1.5039,0.76172 2.57812,2.05078 z m -3.18359,13.84766 q 0.78125,-1.21094 1.15234,-2.8125 0.3711,-1.60156 0.3711,-3.57422 0,-1.44531 -0.3125,-2.94922 -0.3125,-1.5039 -0.97657,-2.61719 -0.66406,-1.13281 -1.73828,-1.83593 -1.07422,-0.70313 -2.57812,-0.70313 -1.44531,0 -2.46094,0.64453 -1.01562,0.625 -1.75781,1.50391 v 11.38672 q 0.17578,0.52734 0.5664,1.09375 0.41016,0.5664 0.89844,0.97656 0.60547,0.48828 1.3086,0.80078 0.70312,0.29297 1.71875,0.29297 1.09375,0 2.10937,-0.56641 1.01563,-0.58593 1.69922,-1.64062 z"
         style="font-style:normal;font-variant:normal;font-weight:normal;font-stretch:normal;font-family:Pagul;-inkscape-font-specification:Pagul;text-align:end;text-anchor:end"
         id="path6499" />
      <path
         d="m 252.81836,785.20738 q -0.91797,0.33204 -1.62109,0.54688 -0.6836,0.19531 -1.5625,0.19531 -1.52344,0 -2.44141,-0.70312 -0.89844,-0.72266 -1.15234,-2.08985 h -0.11719 q -1.26953,1.40625 -2.73438,2.14844 -1.44531,0.74219 -3.49609,0.74219 -2.16797,0 -3.57422,-1.32813 -1.38672,-1.32812 -1.38672,-3.47656 0,-1.11328 0.3125,-1.99219 0.3125,-0.8789 0.9375,-1.58203 0.48828,-0.58594 1.28906,-1.03515 0.80079,-0.46875 1.50391,-0.74219 0.87891,-0.33203 3.55469,-1.23047 2.69531,-0.89844 3.63281,-1.40625 v -1.93359 q 0,-0.25391 -0.11719,-0.97657 -0.0976,-0.72265 -0.44922,-1.36718 -0.39062,-0.72266 -1.11328,-1.25 -0.70312,-0.54688 -2.01172,-0.54688 -0.89843,0 -1.67968,0.3125 -0.76172,0.29297 -1.07422,0.625 0,0.39063 0.17578,1.15234 0.19531,0.76172 0.19531,1.40625 0,0.6836 -0.625,1.25 -0.60547,0.56641 -1.69922,0.56641 -0.97656,0 -1.44531,-0.68359 -0.44922,-0.70313 -0.44922,-1.5625 0,-0.89844 0.625,-1.71875 0.64453,-0.82032 1.66016,-1.46485 0.8789,-0.54687 2.1289,-0.91797 1.25,-0.39062 2.44141,-0.39062 1.64063,0 2.85156,0.23437 1.23047,0.21485 2.22657,0.95704 0.99609,0.72265 1.5039,1.97265 0.52735,1.23047 0.52735,3.1836 0,2.79296 -0.0586,4.96093 -0.0586,2.14844 -0.0586,4.70703 0,0.76172 0.2539,1.21094 0.27344,0.44922 0.82032,0.76172 0.29297,0.17578 0.91797,0.19531 0.64453,0.0195 1.30859,0.0195 z m -6.81641,-9.92187 q -1.66015,0.48828 -2.91015,0.95703 -1.25,0.46875 -2.32422,1.17188 -0.97656,0.66406 -1.54297,1.58203 -0.56641,0.89843 -0.56641,2.14843 0,1.6211 0.83985,2.38282 0.85937,0.76172 2.16797,0.76172 1.38671,0 2.4414,-0.66407 1.05469,-0.68359 1.77735,-1.60156 z"
         style="font-style:normal;font-variant:normal;font-weight:normal;font-stretch:normal;font-family:Pagul;-inkscape-font-specification:Pagul;text-align:end;text-anchor:end"
         id="path6501" />
      <path
         d="m 269.47852,769.17223 q 0,0.99609 -0.48829,1.77734 -0.48828,0.76172 -1.5039,0.76172 -1.09375,0 -1.67969,-0.56641 -0.56641,-0.5664 -0.56641,-1.25 0,-0.42968 0.0586,-0.78125 0.0781,-0.35156 0.13672,-0.70312 -0.91797,0 -2.14844,0.74219 -1.23047,0.74218 -2.08984,2.10937 v 11.21094 q 0,0.68359 0.2539,1.11328 0.27344,0.42969 0.83985,0.64453 0.48828,0.19531 1.25,0.29297 0.78125,0.0977 1.34765,0.13672 v 1.28906 h -10.15625 v -1.28906 q 0.44922,-0.0391 0.91797,-0.0781 0.48828,-0.0391 0.83984,-0.15625 0.54688,-0.17578 0.80079,-0.60546 0.27343,-0.44922 0.27343,-1.15235 v -11.89453 q 0,-0.60547 -0.29297,-1.19141 -0.27343,-0.58593 -0.78125,-0.9375 -0.37109,-0.23437 -0.8789,-0.33203 -0.50781,-0.11718 -1.09375,-0.15625 v -1.26953 l 6.40625,-0.42969 0.27344,0.27344 v 2.71485 h 0.0976 q 1.21094,-1.58204 2.69531,-2.40235 1.48438,-0.82031 2.71485,-0.82031 1.23047,0 1.99219,0.80078 0.78125,0.80078 0.78125,2.14844 z"
         style="font-style:normal;font-variant:normal;font-weight:normal;font-stretch:normal;font-family:Pagul;-inkscape-font-specification:Pagul;text-align:end;text-anchor:end"
         id="path6503" />
      <path
         d="m 289.38086,785.20738 q -0.91797,0.33204 -1.62109,0.54688 -0.6836,0.19531 -1.5625,0.19531 -1.52344,0 -2.44141,-0.70312 -0.89844,-0.72266 -1.15234,-2.08985 h -0.11719 q -1.26953,1.40625 -2.73438,2.14844 -1.44531,0.74219 -3.49609,0.74219 -2.16797,0 -3.57422,-1.32813 -1.38672,-1.32812 -1.38672,-3.47656 0,-1.11328 0.3125,-1.99219 0.3125,-0.8789 0.9375,-1.58203 0.48828,-0.58594 1.28906,-1.03515 0.80079,-0.46875 1.50391,-0.74219 0.87891,-0.33203 3.55469,-1.23047 2.69531,-0.89844 3.63281,-1.40625 v -1.93359 q 0,-0.25391 -0.11719,-0.97657 -0.0977,-0.72265 -0.44922,-1.36718 -0.39062,-0.72266 -1.11328,-1.25 -0.70312,-0.54688 -2.01172,-0.54688 -0.89843,0 -1.67968,0.3125 -0.76172,0.29297 -1.07422,0.625 0,0.39063 0.17578,1.15234 0.19531,0.76172 0.19531,1.40625 0,0.6836 -0.625,1.25 -0.60547,0.56641 -1.69922,0.56641 -0.97656,0 -1.44531,-0.68359 -0.44922,-0.70313 -0.44922,-1.5625 0,-0.89844 0.625,-1.71875 0.64453,-0.82032 1.66016,-1.46485 0.8789,-0.54687 2.1289,-0.91797 1.25,-0.39062 2.44141,-0.39062 1.64063,0 2.85156,0.23437 1.23047,0.21485 2.22657,0.95704 0.99609,0.72265 1.5039,1.97265 0.52735,1.23047 0.52735,3.1836 0,2.79296 -0.0586,4.96093 -0.0586,2.14844 -0.0586,4.70703 0,0.76172 0.2539,1.21094 0.27344,0.44922 0.82032,0.76172 0.29297,0.17578 0.91797,0.19531 0.64453,0.0195 1.30859,0.0195 z m -6.81641,-9.92187 q -1.66015,0.48828 -2.91015,0.95703 -1.25,0.46875 -2.32422,1.17188 -0.97656,0.66406 -1.54297,1.58203 -0.56641,0.89843 -0.56641,2.14843 0,1.6211 0.83985,2.38282 0.85937,0.76172 2.16797,0.76172 1.38671,0 2.4414,-0.66407 1.05469,-0.68359 1.77735,-1.60156 z"
         style="font-style:normal;font-variant:normal;font-weight:normal;font-stretch:normal;font-family:Pagul;-inkscape-font-specification:Pagul;text-align:end;text-anchor:end"
         id="path6505" />
      <path
         d="m 324.2832,785.94957 h -9.39453 v -1.28906 q 0.44922,-0.0391 0.89844,-0.0781 0.46875,-0.0391 0.82031,-0.15625 0.54688,-0.17578 0.80078,-0.60546 0.27344,-0.44922 0.27344,-1.15235 v -9.9414 q 0,-2.03125 -0.9375,-3.125 -0.91797,-1.11329 -2.30469,-1.11329 -0.95703,0 -1.79687,0.29297 -0.83985,0.29297 -1.54297,0.82032 -0.56641,0.42968 -0.95703,0.9375 -0.3711,0.48828 -0.56641,0.82031 v 11.11328 q 0,0.68359 0.23438,1.13281 0.23437,0.42969 0.80078,0.66406 0.44922,0.17579 0.80078,0.27344 0.37109,0.0781 0.95703,0.11719 v 1.28906 h -9.19922 v -1.28906 q 0.44922,-0.0391 0.85938,-0.0781 0.42968,-0.0391 0.78125,-0.15625 0.54687,-0.17578 0.80078,-0.60546 0.27344,-0.44922 0.27344,-1.15235 v -9.9414 q 0,-2.03125 -0.9375,-3.125 -0.91797,-1.11329 -2.30469,-1.11329 -0.95703,0 -1.79688,0.3125 -0.83984,0.29297 -1.54297,0.82032 -0.5664,0.42968 -0.95703,0.97656 -0.39062,0.52734 -0.58593,0.80078 v 11.03516 q 0,0.66406 0.27343,1.11328 0.27344,0.44922 0.82032,0.68359 0.41015,0.19531 0.83984,0.29297 0.42969,0.0977 0.95703,0.13672 v 1.28906 h -9.35547 v -1.28906 q 0.44922,-0.0391 0.91797,-0.0781 0.48828,-0.0391 0.83984,-0.15625 0.54688,-0.17578 0.80079,-0.60546 0.27343,-0.44922 0.27343,-1.15235 v -11.97265 q 0,-0.625 -0.29297,-1.11329 -0.27343,-0.50781 -0.78125,-0.85937 -0.37109,-0.23438 -0.91796,-0.37109 -0.54688,-0.15625 -1.13282,-0.19532 v -1.26953 l 6.44532,-0.42969 0.27343,0.27344 v 2.75391 h 0.13672 q 0.48828,-0.48828 1.19141,-1.15235 0.70312,-0.66406 1.30859,-1.07421 0.6836,-0.46875 1.69922,-0.78125 1.03516,-0.3125 2.22656,-0.3125 1.875,0 3.22266,1.01562 1.34766,0.99609 1.93359,2.42188 0.70313,-0.6836 1.23047,-1.19141 0.54688,-0.52734 1.42578,-1.11328 0.74219,-0.50781 1.73828,-0.82031 1.01563,-0.3125 2.2461,-0.3125 2.4414,0 3.86719,1.60156 1.42578,1.60156 1.42578,4.92187 v 9.78516 q 0,0.68359 0.23437,1.13281 0.23438,0.42969 0.80078,0.66406 0.44922,0.17579 0.87891,0.27344 0.44922,0.0781 0.99609,0.11719 z"
         style="font-style:normal;font-variant:normal;font-weight:normal;font-stretch:normal;font-family:Pagul;-inkscape-font-specification:Pagul;text-align:end;text-anchor:end"
         id="path6507" />
      <path
         d="m 343.63867,780.83238 q -1.21094,2.30469 -3.24219,3.67188 -2.03125,1.36719 -4.66796,1.36719 -2.32422,0 -4.08204,-0.82032 -1.73828,-0.82031 -2.87109,-2.22656 -1.13281,-1.40625 -1.69922,-3.28125 -0.54687,-1.875 -0.54687,-3.96484 0,-1.875 0.58593,-3.67188 0.60547,-1.8164 1.75782,-3.26172 1.11328,-1.38671 2.7539,-2.22656 1.66016,-0.85937 3.71094,-0.85937 2.10938,0 3.61328,0.66406 1.50391,0.66406 2.44141,1.81641 0.89844,1.09375 1.32812,2.57812 0.44922,1.48438 0.44922,3.22266 v 1.28906 h -12.7539 q 0,1.89453 0.35156,3.4375 0.37109,1.54297 1.15234,2.71484 0.76172,1.13282 1.99219,1.79688 1.23047,0.64453 2.92969,0.64453 1.73828,0 2.98828,-0.80078 1.26953,-0.82031 2.4414,-2.92969 z m -4.3164,-6.75781 q 0,-1.09375 -0.19532,-2.34375 -0.17578,-1.25 -0.58593,-2.08984 -0.44922,-0.89844 -1.23047,-1.46485 -0.78125,-0.5664 -2.01172,-0.5664 -2.05078,0 -3.41797,1.71875 -1.34766,1.69922 -1.46484,4.74609 z"
         style="font-style:normal;font-variant:normal;font-weight:normal;font-stretch:normal;font-family:Pagul;-inkscape-font-specification:Pagul;text-align:end;text-anchor:end"
         id="path6509" />
      <path
         d="m 357.79883,784.7191 q -1.26953,0.52735 -2.40235,0.89844 -1.13281,0.35156 -2.77343,0.35156 -2.42188,0 -3.41797,-1.21093 -0.97656,-1.23047 -0.97656,-3.45704 v -13.04687 h -3.47657 v -1.875 h 3.55469 v -5.99609 h 3.55469 v 5.99609 h 5.52734 v 1.875 h -5.48828 v 10.76172 q 0,1.21094 0.0781,2.03125 0.0976,0.80078 0.42968,1.40625 0.3125,0.5664 0.9375,0.85937 0.625,0.29297 1.67969,0.29297 0.48828,0 1.42578,-0.0781 0.95703,-0.0977 1.34766,-0.23438 z"
         style="font-style:normal;font-variant:normal;font-weight:normal;font-stretch:normal;font-family:Pagul;-inkscape-font-specification:Pagul;text-align:end;text-anchor:end"
         id="path6511" />
      <path
         d="m 376.8418,780.83238 q -1.21094,2.30469 -3.24219,3.67188 -2.03125,1.36719 -4.66797,1.36719 -2.32422,0 -4.08203,-0.82032 -1.73828,-0.82031 -2.87109,-2.22656 -1.13282,-1.40625 -1.69922,-3.28125 -0.54688,-1.875 -0.54688,-3.96484 0,-1.875 0.58594,-3.67188 0.60547,-1.8164 1.75781,-3.26172 1.11328,-1.38671 2.75391,-2.22656 1.66015,-0.85937 3.71094,-0.85937 2.10937,0 3.61328,0.66406 1.5039,0.66406 2.4414,1.81641 0.89844,1.09375 1.32813,2.57812 0.44922,1.48438 0.44922,3.22266 v 1.28906 h -12.75391 q 0,1.89453 0.35156,3.4375 0.3711,1.54297 1.15235,2.71484 0.76172,1.13282 1.99218,1.79688 1.23047,0.64453 2.92969,0.64453 1.73828,0 2.98828,-0.80078 1.26953,-0.82031 2.44141,-2.92969 z m -4.31641,-6.75781 q 0,-1.09375 -0.19531,-2.34375 -0.17578,-1.25 -0.58594,-2.08984 -0.44922,-0.89844 -1.23047,-1.46485 -0.78125,-0.5664 -2.01172,-0.5664 -2.05078,0 -3.41797,1.71875 -1.34765,1.69922 -1.46484,4.74609 z"
         style="font-style:normal;font-variant:normal;font-weight:normal;font-stretch:normal;font-family:Pagul;-inkscape-font-specification:Pagul;text-align:end;text-anchor:end"
         id="path6513" />
      <path
         d="m 393.85352,769.17223 q 0,0.99609 -0.48829,1.77734 -0.48828,0.76172 -1.5039,0.76172 -1.09375,0 -1.67969,-0.56641 -0.56641,-0.5664 -0.56641,-1.25 0,-0.42968 0.0586,-0.78125 0.0781,-0.35156 0.13672,-0.70312 -0.91797,0 -2.14844,0.74219 -1.23047,0.74218 -2.08984,2.10937 v 11.21094 q 0,0.68359 0.2539,1.11328 0.27344,0.42969 0.83985,0.64453 0.48828,0.19531 1.25,0.29297 0.78125,0.0977 1.34765,0.13672 v 1.28906 h -10.15625 v -1.28906 q 0.44922,-0.0391 0.91797,-0.0781 0.48828,-0.0391 0.83984,-0.15625 0.54688,-0.17578 0.80079,-0.60546 0.27343,-0.44922 0.27343,-1.15235 v -11.89453 q 0,-0.60547 -0.29297,-1.19141 -0.27343,-0.58593 -0.78125,-0.9375 -0.37109,-0.23437 -0.8789,-0.33203 -0.50781,-0.11718 -1.09375,-0.15625 v -1.26953 l 6.40625,-0.42969 0.27344,0.27344 v 2.71485 h 0.0976 q 1.21094,-1.58204 2.69531,-2.40235 1.48438,-0.82031 2.71485,-0.82031 1.23047,0 1.99219,0.80078 0.78125,0.80078 0.78125,2.14844 z"
         style="font-style:normal;font-variant:normal;font-weight:normal;font-stretch:normal;font-family:Pagul;-inkscape-font-specification:Pagul;text-align:end;text-anchor:end"
         id="path6515" />
      <path
         d="m 408.22852,775.93004 q 0.80078,0.70313 1.23046,1.62109 0.42969,0.91797 0.42969,2.2461 0,2.67578 -2.01172,4.375 -1.99218,1.69922 -5.17578,1.69922 -1.67969,0 -3.10547,-0.60547 -1.40625,-0.60547 -2.01172,-1.11328 l -0.39062,1.26953 h -1.46484 l -0.19532,-6.69922 h 1.34766 q 0.15625,0.76172 0.66406,1.77734 0.50781,1.01563 1.23047,1.83594 0.76172,0.85938 1.81641,1.44531 1.07422,0.58594 2.40234,0.58594 1.875,0 2.89063,-0.83984 1.01562,-0.85938 1.01562,-2.44141 0,-0.82031 -0.33203,-1.40625 -0.3125,-0.60547 -0.9375,-1.05469 -0.64453,-0.44922 -1.58203,-0.80078 -0.9375,-0.37109 -2.08985,-0.72265 -0.91796,-0.27344 -2.05078,-0.74219 -1.11328,-0.48828 -1.91406,-1.13281 -0.85937,-0.6836 -1.40625,-1.67969 -0.54687,-0.9961 -0.54687,-2.34375 0,-2.36328 1.75781,-4.00391 1.75781,-1.64062 4.70703,-1.64062 1.13281,0 2.30469,0.29297 1.1914,0.29296 1.93359,0.70312 l 0.44922,-1.01562 h 1.40625 l 0.29297,6.1914 h -1.34766 q -0.41015,-2.07031 -1.77734,-3.35937 -1.34766,-1.3086 -3.30078,-1.3086 -1.60157,0 -2.51953,0.80078 -0.91797,0.80079 -0.91797,1.9336 0,0.8789 0.29297,1.46484 0.3125,0.58594 0.91796,0.9961 0.58594,0.39062 1.46485,0.74218 0.89844,0.33203 2.20703,0.76172 1.28906,0.41016 2.42187,0.95703 1.15235,0.54688 1.89454,1.21094 z"
         style="font-style:normal;font-variant:normal;font-weight:normal;font-stretch:normal;font-family:Pagul;-inkscape-font-specification:Pagul;text-align:end;text-anchor:end"
         id="path6517" />
    </g>
  </g>
</svg>
